<svg id="Layer_1" data-name="Layer 1" xmlns="http://www.w3.org/2000/svg" viewBox="0 0 235.2 266.84"><defs><style>.cls-1{fill:#b300ff;}</style></defs><title>debug</title><path class="cls-1" d="M50.27,67.06a50.25,50.25,0,0,0-15.71,98l5.77,1.9-5.77,1.9a50.26,50.26,0,1,0,66,47.73V35l-35-35L49,16.59,77.08,44.67v30l-3-1.59A50.35,50.35,0,0,0,50.27,67.06Zm0,174.63a25.11,25.11,0,1,1,25.11-25.11A25.14,25.14,0,0,1,50.27,241.69Zm0-99.25a25.11,25.11,0,1,1,25.11-25.11A25.14,25.14,0,0,1,50.27,142.43Z"/><path class="cls-1" d="M161.07,73.07l-3,1.59v-30l28.09-28.09L169.62,0l-35,35V216.58a50.27,50.27,0,1,0,66-47.73l-5.77-1.9,5.77-1.9a50.26,50.26,0,1,0-39.57-92Zm-1.25,143.5a25.11,25.11,0,1,1,25.11,25.11A25.14,25.14,0,0,1,159.82,216.58Zm0-99.25a25.11,25.11,0,1,1,25.11,25.11A25.14,25.14,0,0,1,159.82,117.32Z"/></svg>