<?xml version="1.0" encoding="utf-8"?>
<!-- Generator: Adobe Illustrator 19.1.0, SVG Export Plug-In . SVG Version: 6.00 Build 0)  -->
<svg version="1.1" id="Layer_1" xmlns="http://www.w3.org/2000/svg" xmlns:xlink="http://www.w3.org/1999/xlink" x="0px" y="0px"
	 viewBox="-981 982.2 36.8 36.8" style="enable-background:new -981 982.2 36.8 36.8;" xml:space="preserve">
<g>
	<g>
		<path class="st0" d="M-966.9,997.8h2.5v-1.6c0-1.1,0.4-2.1,1.1-2.9s1.6-1.2,2.7-1.2h2.5v3.1h-2.5c-0.2,0-0.3,0.1-0.4,0.3
			s-0.2,0.4-0.2,0.7v1.6h3.2v3.2h-3.2v7.7h-3.2v-7.7h-2.5V997.8z"/>
	</g>
	<g>
		<path class="st0" d="M-962.6,1018.3c-9.7,0-17.7-7.9-17.7-17.7c0-9.7,7.9-17.7,17.7-17.7c9.7,0,17.7,7.9,17.7,17.7
			C-944.9,1010.3-952.9,1018.3-962.6,1018.3z M-962.6,983.9c-9.2,0-16.7,7.5-16.7,16.7c0,9.2,7.5,16.7,16.7,16.7
			c9.2,0,16.7-7.5,16.7-16.7C-945.9,991.4-953.4,983.9-962.6,983.9z"/>
	</g>
</g>
</svg>
