<?xml version="1.0" encoding="utf-8"?>
<!-- Generator: Adobe Illustrator 19.1.0, SVG Export Plug-In . SVG Version: 6.00 Build 0)  -->
<svg version="1.1" id="Layer_1" xmlns="http://www.w3.org/2000/svg" xmlns:xlink="http://www.w3.org/1999/xlink" x="0px" y="0px"
	 viewBox="-981 982.2 36.8 36.8" style="enable-background:new -981 982.2 36.8 36.8;" xml:space="preserve">
<g>
	<g>
		<g>
			<path class="st0" d="M-954.2,996.6c-0.3,0.3-0.6,0.6-1,0.8v0.4c0,1.2-0.2,2.3-0.6,3.5c-0.4,1.2-1,2.2-1.9,3.2
				c-0.8,0.9-1.9,1.7-3.1,2.3c-1.2,0.6-2.6,0.9-4.2,0.9c-1,0-1.9-0.1-2.8-0.4c-0.9-0.3-1.7-0.7-2.5-1.1h0.8c1.6,0,3-0.5,4.3-1.5
				c-0.8,0-1.5-0.3-2-0.7c-0.6-0.5-1-1-1.2-1.7c0.3,0.1,0.5,0.1,0.6,0.1c0.2,0,0.4,0,0.5,0s0.3,0,0.4-0.1c-0.8-0.2-1.4-0.6-1.9-1.2
				c-0.5-0.6-0.8-1.4-0.8-2.2l0,0c0.5,0.3,1,0.4,1.6,0.4c-1-0.6-1.5-1.6-1.5-2.9c0-0.6,0.1-1.2,0.4-1.7c0.9,1.1,1.9,1.9,3.1,2.6
				c1.2,0.6,2.5,1,4,1.1c0-0.4,0-0.7,0-0.9c0-1,0.3-1.8,1-2.5s1.5-1,2.4-1c0.5,0,1,0.1,1.4,0.3s0.8,0.5,1.1,0.8
				c0.4-0.1,0.8-0.2,1.2-0.3c0.4-0.2,0.7-0.3,1.1-0.5c-0.2,0.4-0.4,0.7-0.6,1.1c-0.3,0.3-0.6,0.6-0.9,0.8c0.4-0.1,0.7-0.1,1-0.2
				c0.3-0.1,0.6-0.2,1-0.3C-953.6,996-953.9,996.3-954.2,996.6"/>
		</g>
	</g>
	<g>
		<path class="st0" d="M-962.6,1018.3c-9.7,0-17.7-7.9-17.7-17.7c0-9.7,7.9-17.7,17.7-17.7c9.7,0,17.7,7.9,17.7,17.7
			C-944.9,1010.3-952.9,1018.3-962.6,1018.3z M-962.6,983.9c-9.2,0-16.7,7.5-16.7,16.7s7.5,16.7,16.7,16.7s16.7-7.5,16.7-16.7
			C-945.9,991.4-953.4,983.9-962.6,983.9z"/>
	</g>
</g>
</svg>
