<?xml version="1.0" standalone="no"?>
<!DOCTYPE svg PUBLIC "-//W3C//DTD SVG 1.1//EN" "http://www.w3.org/Graphics/SVG/1.1/DTD/svg11.dtd" >
<svg xmlns="http://www.w3.org/2000/svg">
<metadata></metadata>
<defs>
<font id="executiveregular_italic" horiz-adv-x="2250" >
<font-face units-per-em="2048" ascent="1597" descent="-451" />
<missing-glyph horiz-adv-x="614" />
<glyph unicode="&#xfb00;" horiz-adv-x="1460" d="M1587 1300q-31 18 -63.5 29.5t-69.5 11.5q-41 0 -71.5 -10t-53 -35.5t-39 -66.5t-28.5 -103l-25 -120h274l-24 -144h-281l-182 -862h-168l182 862h-503l-183 -862h-168l183 862h-211l26 144h215l29 135q37 174 124 259t236 85q74 0 123 -20.5t74 -37.5l-68 -127 q-31 18 -63.5 29.5t-69.5 11.5q-41 0 -71.5 -10t-53 -35.5t-39 -66.5t-28.5 -103l-25 -120h504l29 135q37 174 124 259t236 85q74 0 123 -20.5t74 -37.5z" />
<glyph unicode="&#xfb01;" horiz-adv-x="1302" d="M856 0l182 862h-506l-182 -862h-168l183 862h-211l26 144h215l29 135q37 174 124 259t236 85q80 0 130.5 -19.5t78.5 -38.5l-67 -127q-31 18 -67 29.5t-79 11.5q-41 0 -71.5 -10t-53 -35.5t-39 -66.5t-28.5 -103l-25 -120h674l-213 -1006h-168zM1108 1214l47 226h180 l-47 -226h-180z" />
<glyph unicode="&#xfb02;" horiz-adv-x="1370" d="M1137 1311q-90 4 -170 16t-172 12q-84 0 -132.5 -45t-72.5 -168l-25 -120h275l-25 -144h-280l-183 -862h-168l183 862h-211l26 144h215l29 135q39 180 129 262t240 82q70 0 133 -8.5t125.5 -17.5t130 -17t145.5 -8l-233 -1104q-10 -43 -18.5 -89t1.5 -73q18 -51 88 -51 q29 0 53.5 8t53.5 25l49 -109q-47 -35 -94 -51.5t-113 -16.5q-86 0 -148.5 48.5t-62.5 146.5q0 39 6.5 78t14.5 73z" />
<glyph unicode="&#xfb03;" horiz-adv-x="1980" d="M1532 0l182 862h-506l-182 -862h-168l182 862h-505l-183 -862h-168l183 862h-211l26 144h215l29 135q37 174 124 259t236 85q74 0 123 -20.5t74 -37.5l-68 -127q-31 18 -63.5 29.5t-69.5 11.5q-41 0 -71.5 -10t-53 -35.5t-39 -66.5t-28.5 -103l-25 -120h506l29 135 q37 174 124 259t236 85q78 0 130 -19.5t79 -38.5l-67 -127q-31 18 -67 29.5t-79 11.5q-41 0 -71.5 -10t-53 -35.5t-39 -66.5t-28.5 -103l-25 -120h674l-213 -1006h-168zM1784 1214l47 226h180l-47 -226h-180z" />
<glyph unicode="&#xfb04;" horiz-adv-x="2039" d="M1806 1311q-90 4 -170 16t-172 12q-84 0 -132 -45t-72 -168l-25 -120h274l-24 -144h-281l-182 -862h-168l182 862h-501l-183 -862h-168l183 862h-211l26 144h215l29 135q37 174 124 259t236 85q74 0 123 -20.5t74 -37.5l-68 -127q-31 18 -63.5 29.5t-69.5 11.5 q-41 0 -71.5 -10t-53 -35.5t-39 -66.5t-28.5 -103l-25 -120h502l29 135q39 180 129 262t239 82q70 0 133.5 -8.5t126 -17.5t130 -17t145.5 -8l-234 -1104q-10 -43 -18 -89t2 -73q18 -51 88 -51q29 0 53.5 8t53.5 25l49 -109q-47 -35 -94.5 -51.5t-112.5 -16.5 q-86 0 -148.5 48.5t-62.5 146.5q0 39 6 78t14 73z" />
<glyph horiz-adv-x="0" />
<glyph unicode="&#xd;" horiz-adv-x="0" />
<glyph horiz-adv-x="0" />
<glyph horiz-adv-x="0" />
<glyph unicode=" "  horiz-adv-x="614" />
<glyph unicode="&#x09;" horiz-adv-x="614" />
<glyph unicode="&#xa0;" horiz-adv-x="614" />
<glyph unicode="!" horiz-adv-x="724" d="M684 1454q-59 -262 -109.5 -467t-87.5 -348q-43 -168 -77 -293h-123q16 125 43 293q23 143 58.5 348t88.5 467h207zM172 0l45 219h209l-45 -219h-209z" />
<glyph unicode="&#x22;" horiz-adv-x="976" d="M479 809l-47 420v225h166v-225l-47 -420h-72zM799 809l-47 420v225h166v-225l-48 -420h-71z" />
<glyph unicode="#" horiz-adv-x="1187" d="M1214 885h-272l-61 -328h278l-26 -127h-275l-80 -430h-145l80 430h-234l-80 -430h-145l80 430h-268l26 127h264l62 328h-266l28 127h262l76 409h146l-76 -409h233l76 409h145l-75 -409h276zM563 885l-61 -328h235l60 328h-234z" />
<glyph unicode="$" horiz-adv-x="1187" d="M457 -18q-170 33 -250 149.5t-80 296.5l174 25q0 -135 45 -214t146 -102l118 559l-90 60q-86 57 -141 134t-55 193q0 186 116.5 294t325.5 108h10l39 178h115l-41 -190q135 -29 215 -119t80 -234l-172 -35q0 100 -41 155.5t-115 76.5l-106 -498l92 -59q47 -31 87 -67 t68.5 -79t44 -98t15.5 -125q0 -102 -36 -181t-98.5 -132t-149.5 -81t-189 -28h-15l-39 -184h-114zM711 631l-109 -504q129 4 197.5 69.5t68.5 188.5q0 78 -30.5 131t-104.5 100zM506 1106q0 -72 25.5 -116t84.5 -83l33 -22l94 444q-115 -4 -176 -67.5t-61 -155.5z" />
<glyph unicode="%" horiz-adv-x="1918" d="M901 1174q0 -104 -29.5 -198.5t-80 -165.5t-116 -112t-134.5 -41q-111 0 -178.5 65.5t-67.5 192.5q0 117 30.5 212.5t82 163t116 104.5t131.5 37q111 0 178.5 -65.5t67.5 -192.5zM760 1171q0 82 -30 113t-83 31q-39 0 -78 -30t-70.5 -82t-51 -124.5t-19.5 -158.5 q0 -82 29.5 -113t83.5 -31q39 0 77.5 30t70.5 82t51.5 124.5t19.5 158.5zM639 -43l-111 61l856 1452l109 -63zM1737 504q0 -104 -30 -198.5t-80 -165t-115.5 -111.5t-135.5 -41q-111 0 -178.5 65.5t-67.5 192.5q0 117 31 212t82 162.5t115.5 104.5t132.5 37 q111 0 178.5 -65.5t67.5 -192.5zM1595 502q0 82 -29.5 112.5t-82.5 30.5q-39 0 -78 -29.5t-70.5 -82t-51 -125t-19.5 -158.5q0 -82 29.5 -113t82.5 -31q39 0 78 30t70.5 82t51 125t19.5 159z" />
<glyph unicode="&#x26;" horiz-adv-x="1284" d="M154 291q0 104 30.5 188t84 155t128 127t160.5 105l-33 72q-25 53 -39 97t-14 102q0 78 25.5 140t70.5 105t107.5 65.5t136.5 22.5q145 0 223 -67.5t78 -188.5q0 -63 -17.5 -113t-58.5 -98.5t-107.5 -95.5t-164.5 -104l158 -363q29 66 44 134.5t17 154.5h156 q0 -139 -32 -247.5t-110 -215.5l125 -266h-188l-57 129q-66 -63 -163.5 -108.5t-221.5 -45.5q-72 0 -133.5 21.5t-106.5 62.5t-71.5 99.5t-26.5 132.5zM516 121q45 0 89 13t82 34.5t69.5 49.5t54.5 56l-193 453q-158 -90 -224 -191.5t-66 -232.5q0 -182 188 -182zM705 944 q127 74 184 136.5t53 129.5q-2 59 -36 88t-93 29q-78 0 -125 -49t-47 -135q0 -33 4 -54.5t17 -48.5z" />
<glyph unicode="'" horiz-adv-x="686" d="M479 809l-47 420v225h166v-225l-47 -420h-72z" />
<glyph unicode="(" horiz-adv-x="724" d="M348 238q0 -59 3 -124t15.5 -141.5t34 -167t58.5 -198.5l-109 -49q-57 123 -92 234.5t-53.5 206.5t-23.5 174t-5 138q0 197 40 364t117 314.5t186.5 280.5t248.5 262l88 -78q-139 -145 -235.5 -287.5t-157 -291t-88 -306t-27.5 -331.5z" />
<glyph unicode=")" horiz-adv-x="724" d="M444 854q0 57 -3 122.5t-15 142.5t-33.5 167t-58.5 199l108 49q57 -123 92 -234.5t53.5 -207t23.5 -174t5 -138.5q0 -197 -39.5 -363.5t-116.5 -314t-186.5 -280.5t-248.5 -262l-88 78q137 143 234 286.5t157.5 292t88 306t27.5 331.5z" />
<glyph unicode="*" horiz-adv-x="913" d="M965 1196l-84 -96l-117 106q-14 10 -28.5 26.5t-26.5 31.5q-14 16 -29 34q0 -25 -2 -47q-2 -20 -5 -42.5t-7 -41.5l-31 -149l-133 29l33 149q4 16 10 38.5t14 41.5q8 23 19 45l-46 -23q-18 -10 -37.5 -17t-29.5 -11l-156 -51l-37 122l150 52q16 4 37.5 7t42.5 7 q23 4 45 6q-18 14 -39 27q-16 10 -34.5 23.5t-31.5 23.5l-114 102l82 99l118 -105l27.5 -27.5t28.5 -31.5q14 -18 28 -35q0 23 2 45q2 20 3 41.5t6 40.5l32 153l133 -28l-32 -154q-4 -16 -10.5 -36.5t-14.5 -39.5q-8 -23 -18 -43q20 10 43 19q18 8 36.5 16t34.5 13l150 51 l39 -123l-150 -51q-16 -4 -34.5 -8.5t-34.5 -8.5q-20 -4 -39 -8q14 -12 30 -22q14 -10 30 -20.5t28 -20.5z" />
<glyph unicode="+" horiz-adv-x="1331" d="M743 461v-416h-131v416h-419v127h419v416h131v-416h420v-127h-420z" />
<glyph unicode="," horiz-adv-x="686" d="M387 10q-14 -68 -35.5 -118t-49.5 -89t-60.5 -67.5t-67.5 -52.5l-49 61q61 49 92 103.5t47 119.5l8 33h-106l45 219h221z" />
<glyph unicode="-" horiz-adv-x="940" d="M188 514l31 148h612l-30 -148h-613z" />
<glyph unicode="." horiz-adv-x="686" d="M154 0l45 219h213l-45 -219h-213z" />
<glyph unicode="/" horiz-adv-x="933" d="M264 -31h-162l660 1516h162z" />
<glyph unicode="0" horiz-adv-x="1187" d="M1161 1004q0 -238 -50 -428.5t-136 -323.5t-199.5 -205t-240.5 -72q-178 0 -285 106.5t-107 342.5q0 227 51.5 413.5t137.5 319.5t200.5 206t241.5 73q186 0 286.5 -114.5t100.5 -317.5zM981 983q0 152 -51 226.5t-168 74.5q-88 0 -167 -62.5t-138.5 -176t-94 -273.5 t-34.5 -352q0 -154 53 -223.5t162 -69.5q88 0 166.5 62.5t139 175t96.5 270.5t36 348z" />
<glyph unicode="1" horiz-adv-x="1187" d="M141 152h375l219 1015q-98 -78 -207.5 -153.5t-212.5 -139.5l-79 132q63 41 134.5 89t144.5 100t143.5 106.5t136.5 109.5h170l-269 -1259h344l-22 -152h-901z" />
<glyph unicode="2" horiz-adv-x="1187" d="M80 0l20 160q113 82 247 196.5t317 264.5q94 78 154.5 143t95 121.5t49 105.5t14.5 96q0 94 -49 145.5t-142 51.5q-133 0 -210.5 -80t-106.5 -215l-166 33q14 92 56 168t104.5 131t146.5 85t183 30q82 0 149.5 -25t115.5 -69t73.5 -106t25.5 -138q0 -72 -18.5 -136.5 t-61.5 -133t-115.5 -145.5t-181.5 -169q-51 -43 -107.5 -91t-115.5 -96t-118.5 -94.5t-114.5 -85.5q63 2 120.5 3.5t126.5 1.5h383l-20 -152h-854z" />
<glyph unicode="3" horiz-adv-x="1187" d="M776 1284q-223 0 -295 -205l-166 45q20 66 61.5 123.5t100 99.5t134 65.5t167.5 23.5q84 0 151.5 -23.5t115 -65.5t73 -98.5t25.5 -122.5q0 -84 -26.5 -144t-72 -103t-103.5 -69t-122 -38v-4q47 -8 90 -31.5t76 -60.5t52.5 -87t19.5 -114q0 -106 -39 -198.5t-108.5 -160 t-167 -106.5t-214.5 -39q-94 0 -171.5 27t-133 73t-86.5 110.5t-31 137.5q0 20 1.5 40t3.5 40l176 4q-2 -16 -2 -30.5v-28.5q0 -100 62.5 -160.5t184.5 -60.5q72 0 134.5 25.5t108.5 72.5t72.5 110.5t26.5 141.5q0 57 -15 100t-57 71t-116 42t-190 14l24 144q125 0 210 15 t137.5 49t75 85t22.5 123q0 76 -49.5 122t-139.5 46z" />
<glyph unicode="4" horiz-adv-x="1187" d="M848 309l-66 -309h-178l66 309h-570l27 162l795 940h159l-202 -950h211l-23 -152h-219zM700 461l131 614l-518 -614h387z" />
<glyph unicode="5" horiz-adv-x="1187" d="M213 623l203 788h764l-25 -151h-614l-115 -422q63 57 139 90t174 33q162 0 261.5 -95.5t99.5 -281.5q0 -129 -42 -241t-115 -194.5t-172 -130t-216 -47.5q-94 0 -172 28t-135.5 78t-91 120.5t-35.5 158.5l178 23q10 -123 73.5 -189.5t178.5 -66.5q72 0 137.5 32.5 t116.5 93t82 145.5t33 188q2 109 -49.5 167t-141.5 58q-55 0 -101 -9.5t-90 -31t-88 -57t-96 -86.5h-141z" />
<glyph unicode="6" horiz-adv-x="1187" d="M145 418q0 197 54.5 380t146.5 325.5t214 227.5t255 85q92 0 157.5 -25t109.5 -68t69 -103t37 -134l-178 -33q-20 211 -191 211q-84 0 -156.5 -45t-131 -120t-101.5 -174t-70 -208q66 82 154 130t193 48q178 0 278 -100t100 -266q0 -123 -42 -228.5t-115.5 -182.5 t-173 -120t-213.5 -43q-86 0 -159 27t-125 81t-82 137t-30 198zM322 377q0 -117 57 -183.5t170 -66.5q74 0 139.5 31.5t113.5 89t75.5 133.5t27.5 166q0 104 -54 160.5t-159 56.5q-80 0 -147.5 -31t-117.5 -84t-77.5 -123.5t-27.5 -148.5z" />
<glyph unicode="7" horiz-adv-x="1187" d="M1214 1262q-141 -135 -253.5 -280.5t-200.5 -302.5t-154.5 -326t-118.5 -353h-190q51 195 119.5 366t159 324.5t202 293.5t246.5 276h-684l25 151h876z" />
<glyph unicode="8" horiz-adv-x="1187" d="M479 778q-33 8 -63.5 29.5t-54 51.5t-38 69t-14.5 82q0 88 36 164.5t98.5 135t146.5 92.5t180 34q88 0 156.5 -22.5t117 -64.5t74 -98.5t25.5 -124.5q0 -84 -24.5 -147.5t-66.5 -109.5t-97.5 -73.5t-116.5 -39.5v-4q33 -4 72.5 -23.5t73.5 -54.5t56.5 -85t22.5 -118 q0 -115 -42 -206t-114.5 -155.5t-172 -99.5t-214.5 -35q-90 0 -165.5 21.5t-131 64.5t-87.5 110t-32 159q0 90 30 165.5t81 133t119.5 95.5t144.5 50v4zM883 471q0 96 -65.5 152.5t-186.5 56.5q-78 0 -141.5 -26.5t-109.5 -74t-70.5 -112t-24.5 -141.5q0 -94 60.5 -146.5 t176.5 -52.5q80 0 146.5 23.5t113.5 67.5t74 108.5t27 144.5zM684 829q119 0 200 75t81 210q0 76 -54.5 124t-148.5 48q-125 0 -201 -78t-76 -207q0 -74 54.5 -123t144.5 -49z" />
<glyph unicode="9" horiz-adv-x="1187" d="M1165 999q0 -213 -50 -400t-138 -325.5t-208 -218.5t-261 -80q-98 0 -167 25t-114 68t-69.5 103t-36.5 134l178 33q20 -211 190 -211q90 0 163 39t129.5 107.5t96.5 166t64 213.5q-129 -158 -340 -157q-84 0 -153.5 26.5t-119.5 75.5t-78 119.5t-28 159.5q0 125 42 228 t116 177t173 114t214 40q184 0 290.5 -110t106.5 -327zM987 1024q0 123 -57.5 191.5t-169.5 68.5q-74 0 -139.5 -31.5t-113.5 -87t-76 -130t-28 -158.5q0 -113 56.5 -171.5t156.5 -58.5q80 0 147.5 31t118 83t78 120.5t27.5 142.5z" />
<glyph unicode=":" horiz-adv-x="686" d="M307 786l47 220h213l-47 -220h-213zM154 0l45 219h213l-45 -219h-213z" />
<glyph unicode=";" horiz-adv-x="686" d="M307 786l47 220h213l-47 -220h-213zM373 10q-14 -68 -36 -118t-49.5 -89t-60 -67.5t-67.5 -52.5l-49 61q61 49 91.5 103.5t47.5 119.5l8 33h-106l45 219h221z" />
<glyph unicode="&#x3c;" horiz-adv-x="1331" d="M176 442v123l938 457l55 -115l-618 -289q-66 -31 -136.5 -61.5t-125.5 -50.5v-4q55 -20 125.5 -51t136.5 -62l618 -289l-55 -114z" />
<glyph unicode="=" horiz-adv-x="1331" d="M193 623v127h970v-127h-970zM193 299v127h970v-127h-970z" />
<glyph unicode="&#x3e;" horiz-adv-x="1331" d="M242 -14l-56 114l619 289q66 31 136.5 61.5t125.5 51.5v4q-55 20 -126 51t-136 61l-619 289l56 115l938 -457v-123z" />
<glyph unicode="?" horiz-adv-x="1107" d="M1100 1159q0 -88 -33 -161.5t-89 -131t-134 -95.5t-168 -52l-80 -352h-170l98 462q182 16 293 97.5t111 236.5q0 80 -51.5 127t-149.5 47q-111 0 -179.5 -64.5t-86.5 -162.5l-154 39q10 70 45 131t90.5 107.5t130 72t162.5 25.5q174 0 269.5 -86t95.5 -240zM328 0l45 219 h213l-45 -219h-213z" />
<glyph unicode="@" horiz-adv-x="1730" d="M1481 -125q-33 -41 -89.5 -81t-127 -70.5t-151.5 -50t-161 -19.5q-145 0 -283.5 45t-246 141.5t-173 246t-65.5 355.5q0 211 59.5 384t167 294t258 187.5t330.5 66.5q143 0 259 -53t198 -147.5t126 -222.5t44 -275q0 -143 -28.5 -256t-82 -190.5t-128 -118.5t-164.5 -41 q-76 0 -128.5 37.5t-68.5 115.5h-4q-29 -59 -83 -106t-142 -47q-66 0 -114 26.5t-82 73.5t-50 112.5t-16 145.5q0 86 23.5 179t70.5 170t117.5 126t166.5 49q66 0 115 -36.5t64 -98.5h6q4 12 11 30.5t13 35.5q8 20 17 41h151q-18 -55 -33.5 -126t-29.5 -157l-43 -266 q-4 -29 -7 -51.5t-3 -49.5q0 -41 27.5 -61t53.5 -20q115 0 177.5 122.5t62.5 346.5q0 131 -35 240.5t-100.5 188t-158.5 121.5t-210 43q-150 0 -273.5 -55t-212.5 -159.5t-138.5 -256t-49.5 -342.5q0 -176 52.5 -303t141.5 -209t204.5 -120.5t242.5 -38.5q63 0 132 15 t131.5 41t113.5 59.5t80 68.5zM1044 651q0 68 -28.5 114t-95.5 46q-59 0 -100.5 -38t-68 -94t-39 -120.5t-12.5 -120.5q0 -121 34 -173t102 -52q63 0 103 51t63.5 122t32.5 144.5t9 120.5z" />
<glyph unicode="A" horiz-adv-x="1210" d="M872 0l-28 315h-518l-164 -315h-203l782 1454h154l168 -1454h-191zM793 913q-6 70 -12.5 145t-6.5 142h-4q-29 -68 -56.5 -122t-62.5 -126l-241 -477h424z" />
<glyph unicode="B" horiz-adv-x="1280" d="M426 1454h430q190 0 288.5 -83t98.5 -230q0 -84 -28.5 -146.5t-76.5 -106.5t-108.5 -70.5t-124.5 -41.5v-4q96 -23 159.5 -94.5t63.5 -188.5t-44 -206.5t-123.5 -153t-191.5 -96.5t-245 -33h-405zM334 154h219q90 0 162.5 25.5t123 69.5t78 106.5t27.5 136.5 q0 98 -61.5 149t-200.5 51h-233zM672 842q180 0 283.5 78.5t103.5 220.5q0 78 -58.5 118.5t-171.5 40.5h-251l-97 -458h191z" />
<glyph unicode="C" horiz-adv-x="1220" d="M1104 434q-16 -98 -59.5 -183t-109 -147.5t-149.5 -98.5t-184 -36q-209 0 -318.5 131t-109.5 387q0 231 52.5 417t144.5 315t215 197.5t264 68.5q92 0 161.5 -32t116 -89t69 -134t24.5 -167l-181 -25q-4 147 -57 218t-164 71q-90 0 -174 -58.5t-147.5 -169t-101.5 -268 t-38 -356.5q0 -180 68 -264t172 -84q78 0 136.5 30.5t99 82t65.5 115t35 128.5z" />
<glyph unicode="D" horiz-adv-x="1306" d="M1253 920q0 -205 -50 -374t-144 -291t-230.5 -188.5t-310.5 -66.5h-401l307 1454h309q53 0 106.5 -6t108.5 -23q145 -41 225 -167.5t80 -337.5zM1065 885q0 117 -19.5 196.5t-64.5 127.5t-117.5 68.5t-179.5 20.5h-104l-242 -1142h215q117 0 212 62.5t161.5 164.5 t102.5 233.5t36 268.5z" />
<glyph unicode="E" horiz-adv-x="1118" d="M113 0l307 1454h813l-33 -158h-625l-100 -471h506l-33 -157h-506l-108 -510h624l-32 -158h-813z" />
<glyph unicode="F" horiz-adv-x="1077" d="M117 0l307 1454h813l-33 -158h-624l-101 -471h506l-33 -157h-506l-141 -668h-188z" />
<glyph unicode="G" horiz-adv-x="1306" d="M907 0l19 172h-4q-37 -80 -118 -141.5t-198 -61.5q-201 0 -314.5 131t-113.5 387q0 225 54.5 409.5t148.5 314.5t219 202t266 72q96 0 166 -29t115 -80t68.5 -124.5t27.5 -161.5l-188 -31q-8 147 -61.5 207.5t-157.5 60.5q-90 0 -176.5 -58.5t-152 -169t-105.5 -268 t-40 -356.5q0 -90 20.5 -155.5t54.5 -108.5t79 -63.5t96 -20.5q139 0 234.5 135t140.5 379h-297l25 154h477l-168 -795h-117z" />
<glyph unicode="H" horiz-adv-x="1288" d="M803 0l141 666h-498l-141 -666h-188l307 1454h188l-131 -625h498l131 625h188l-307 -1454h-188z" />
<glyph unicode="I" horiz-adv-x="610" d="M119 0l307 1454h188l-307 -1454h-188z" />
<glyph unicode="J" horiz-adv-x="1105" d="M928 416q-23 -109 -62 -193t-99 -140t-145 -85t-198 -29q-164 0 -248 85t-84 220q0 27 4 65t10 60l177 15q-4 -27 -10.5 -55.5t-6.5 -69.5q0 -86 45 -124t144 -38q227 0 284 276l224 1051h184z" />
<glyph unicode="K" horiz-adv-x="1214" d="M856 0l-252 696l-198 -196l-105 -500h-184l307 1454h184l-143 -684l682 684h233l-645 -643l330 -811h-209z" />
<glyph unicode="L" horiz-adv-x="1046" d="M119 0l307 1454h188l-274 -1294h600l-33 -160h-788z" />
<glyph unicode="M" horiz-adv-x="1646" d="M1165 0l193 897q18 86 39.5 169t50.5 198h-4q-20 -45 -37.5 -82t-33 -71t-33 -68.5t-37.5 -73.5l-504 -969h-152l-76 971q-4 45 -6 79.5t-4 68.5t-4 70t-4 83h-4q-12 -66 -20.5 -115t-16.5 -91t-15.5 -80t-17.5 -83l-196 -903h-172l321 1454h262l64 -942q2 -41 3 -71.5 t2 -61.5t2 -64.5t1 -81.5h4q18 43 33.5 79t31 69t32 64.5t34.5 68.5l475 940h275l-301 -1454h-185z" />
<glyph unicode="N" horiz-adv-x="1380" d="M659 1454l240 -1005q14 -59 25.5 -113.5t25.5 -140.5h11q12 86 23 164.5t32 170.5l196 924h174l-294 -1454h-269l-233 963q-8 37 -15.5 67.5t-12.5 61t-10 63.5t-11 74h-4q-6 -43 -12.5 -79t-12.5 -71t-13 -70.5t-16 -80.5l-186 -928h-178l295 1454h245z" />
<glyph unicode="O" horiz-adv-x="1306" d="M1257 991q0 -213 -48 -399t-137 -324.5t-215 -218.5t-282 -80q-84 0 -157.5 32t-129 94.5t-87 156.5t-31.5 219q0 199 50 383t142.5 323.5t220.5 223.5t285 84q178 0 283.5 -128t105.5 -366zM1071 981q0 180 -61.5 263t-165.5 83t-193.5 -67.5t-155 -183t-102.5 -271.5 t-37 -334q0 -186 62.5 -265t179.5 -79q98 0 185 67.5t150.5 184.5t100.5 272.5t37 329.5z" />
<glyph unicode="P" horiz-adv-x="1236" d="M1264 1100q0 -238 -150.5 -364t-425.5 -126h-258l-129 -610h-184l307 1454h434q201 0 303.5 -97t102.5 -257zM1079 1092q0 96 -65.5 151t-229.5 55h-209l-112 -532h211q215 0 310 86t95 240z" />
<glyph unicode="Q" horiz-adv-x="1306" d="M1257 991q0 -201 -43 -377t-121.5 -311t-190 -222t-251.5 -106l-14 -73q-14 -72 53 -72q33 0 65.5 12.5t65.5 28.5l37 -96q-47 -33 -102.5 -52.5t-116.5 -19.5q-88 0 -132 54.5t-26 152.5l13 67q-70 14 -129.5 52.5t-102.5 99.5t-67.5 146t-24.5 196q0 199 50 383 t142.5 323.5t220.5 223.5t285 84q178 0 283.5 -128t105.5 -366zM1071 981q0 180 -61.5 263t-165.5 83t-193.5 -67.5t-155 -183t-102.5 -271.5t-37 -334q0 -186 62.5 -265t179.5 -79q98 0 185 67.5t150.5 184.5t100.5 272.5t37 329.5z" />
<glyph unicode="R" horiz-adv-x="1290" d="M1280 1110q0 -92 -28.5 -166t-75 -129t-107.5 -92t-125 -55l123 -668h-195l-102 631h-334l-133 -631h-184l307 1454h446q203 0 305.5 -89t102.5 -255zM1100 1104q0 104 -65.5 149t-192.5 45h-264l-109 -512h254q174 0 275.5 82t101.5 236z" />
<glyph unicode="S" horiz-adv-x="1239" d="M1100 401q0 -102 -35 -182t-100.5 -135t-157.5 -85t-205 -30q-217 0 -343 109.5t-136 306.5l170 41q10 -158 84 -228.5t233 -70.5q133 0 217 64.5t84 187.5q0 78 -30.5 137t-112.5 107l-217 129q-109 63 -161 144t-52 198q0 186 123 288.5t342 102.5q190 0 299.5 -89 t130.5 -237l-164 -63q-14 117 -82.5 175t-183.5 58q-139 0 -211 -59.5t-72 -153.5q0 -72 29 -122t98 -91l230 -137q109 -63 166 -149.5t57 -215.5z" />
<glyph unicode="T" horiz-adv-x="1081" d="M807 1294l-275 -1294h-188l274 1294h-378l32 160h947l-33 -160h-379z" />
<glyph unicode="U" horiz-adv-x="1314" d="M608 -31q-104 0 -182 24.5t-130 68.5t-79 103.5t-29 129.5q-2 39 4.5 91t18.5 106l205 962h184l-213 -1008q-8 -35 -12 -69.5t-4 -57.5q0 -98 63.5 -146t179.5 -48q119 0 202 75.5t120 250.5l211 1003h188l-221 -1034q-27 -121 -73 -207t-110.5 -140.5t-145.5 -79 t-177 -24.5z" />
<glyph unicode="V" horiz-adv-x="1216" d="M629 0h-219l-148 1454h184l86 -954q4 -49 6.5 -85t4.5 -68t3 -63.5t3 -74.5h4q20 41 35.5 72.5t31 64.5t34 69t42.5 87l482 952h200z" />
<glyph unicode="W" horiz-adv-x="1775" d="M1264 0h-209l-23 897q0 72 2 157t10 181h-4q-29 -98 -61.5 -180t-67.5 -168l-370 -887h-207l-27 1454h180l7 -946q0 -66 -3.5 -130.5t-9.5 -146.5h4q27 78 51.5 144.5t53.5 132.5l385 946h221l8 -948v-131.5t-8 -145.5h4q27 80 50.5 145.5t52.5 131.5l395 948h188z" />
<glyph unicode="X" horiz-adv-x="1173" d="M-51 0l594 766l-230 688h197l174 -532l403 532h218l-560 -723l250 -731h-200l-189 580l-428 -580h-229z" />
<glyph unicode="Y" horiz-adv-x="1150" d="M694 629l-127 -629h-182l129 635l-276 819h206l191 -633l467 633h225z" />
<glyph unicode="Z" horiz-adv-x="1157" d="M23 0l28 170l940 1126q-33 -2 -69 -2h-150h-461l25 160h893l-29 -170l-944 -1126h63q29 0 67 1t79 1h532l-24 -160h-950z" />
<glyph unicode="[" horiz-adv-x="724" d="M74 -410l403 1895h424l-29 -133h-256l-346 -1628h256l-28 -134h-424z" />
<glyph unicode="\" horiz-adv-x="933" d="M117 1485h162l659 -1516h-162z" />
<glyph unicode="]" horiz-adv-x="724" d="M-145 -410l28 134h254l346 1628h-256l29 133h424l-404 -1895h-421z" />
<glyph unicode="^" horiz-adv-x="1331" d="M1245 612l-115 -61l-403 739h-4l-401 -739l-115 61l459 842h116z" />
<glyph unicode="_" horiz-adv-x="1024" d="M0 -215v94h1024v-94h-1024z" />
<glyph unicode="`" horiz-adv-x="450" d="M-55 1341l92 144l375 -262l-45 -80z" />
<glyph unicode="a" horiz-adv-x="1167" d="M621 887q-74 0 -134.5 -43t-102.5 -112.5t-64.5 -160t-22.5 -184.5q0 -137 52 -200.5t147 -63.5q74 0 135 39t106 106.5t69.5 156.5t24.5 187q0 141 -56 208t-154 67zM936 287q-10 -49 -12 -122t2 -165h-172q-4 35 -6.5 66.5t0.5 60.5h-5q-37 -55 -106.5 -101t-167.5 -46 q-162 0 -254 104t-92 303q0 147 40 266t107.5 203t155.5 129t184 45q117 0 181.5 -52t93.5 -144h4q8 37 21.5 89t23.5 83h168q-23 -78 -44.5 -165t-37.5 -161z" />
<glyph unicode="b" horiz-adv-x="1179" d="M901 618q0 150 -54 209.5t-147 59.5q-74 0 -134 -44t-103 -118t-67.5 -167t-24.5 -191q0 -111 59 -179.5t168 -68.5q61 0 116.5 33.5t96.5 98t65.5 157.5t24.5 210zM307 172q-8 -41 -20.5 -86t-26.5 -86h-166q16 53 34.5 132t41.5 183l242 1139h168l-95 -450 q-10 -47 -23 -90.5t-24 -71.5h4q47 82 126 135t177 53q76 0 137.5 -27.5t104.5 -80t66.5 -126t23.5 -165.5q0 -141 -33.5 -261t-95 -207t-148.5 -137.5t-194 -50.5q-125 0 -196.5 55.5t-98.5 141.5h-4z" />
<glyph unicode="c" horiz-adv-x="1064" d="M653 887q-74 0 -137 -37t-109.5 -102.5t-73 -159.5t-26.5 -207q0 -123 59.5 -192.5t168.5 -69.5q102 0 162.5 62.5t84.5 152.5l158 -53q-20 -63 -55 -119t-87.5 -97.5t-123 -65.5t-162.5 -24q-190 0 -287.5 109t-97.5 301q0 141 41 260t114.5 204t173 133t216.5 48 q162 0 245.5 -86t92.5 -221l-170 -23q-6 88 -50.5 137.5t-136.5 49.5z" />
<glyph unicode="d" horiz-adv-x="1179" d="M948 252q-10 -51 -18 -122t-6 -130h-168q0 45 4 90t14 76h-4q-47 -86 -121 -137.5t-182 -51.5q-74 0 -134.5 29t-104.5 83t-68.5 130t-24.5 170q0 143 36 261t98.5 203t148.5 132t188 47q123 0 194.5 -55t100.5 -141h4l131 618h168zM311 397q0 -78 14.5 -131t40 -86 t62.5 -46t84 -13q72 0 132.5 45t104.5 116.5t68.5 163t24.5 183.5q0 125 -55.5 192.5t-172.5 67.5q-59 0 -113.5 -34t-96.5 -98.5t-67.5 -155.5t-25.5 -204z" />
<glyph unicode="e" horiz-adv-x="1093" d="M915 240q-57 -119 -152 -192t-251 -73q-190 0 -287.5 105.5t-97.5 304.5q0 137 39 255t108.5 205t166 136t210.5 49q88 0 155.5 -29.5t113 -80t68 -118t22.5 -143.5q0 -61 -10.5 -119.5t-20.5 -99.5h-670q-4 -16 -4 -34.5v-24.5q0 -262 213 -262q88 0 151.5 53t98.5 133z M827 584q4 25 6.5 47t2.5 45q2 104 -51.5 157.5t-151.5 53.5q-59 0 -108.5 -23.5t-87.5 -65.5t-65.5 -97.5t-41.5 -116.5h497z" />
<glyph unicode="f" horiz-adv-x="788" d="M915 1300q-31 18 -63.5 29.5t-69.5 11.5q-41 0 -71.5 -10t-53 -35.5t-39 -66.5t-28.5 -103l-25 -120h275l-25 -144h-280l-183 -862h-168l183 862h-211l26 144h215l29 135q37 174 124 259t236 85q74 0 123 -20.5t74 -37.5z" />
<glyph unicode="g" horiz-adv-x="1167" d="M621 887q-74 0 -133.5 -43t-102.5 -114t-65.5 -161t-22.5 -186q0 -135 52 -197.5t147 -62.5q74 0 135 39t106 106.5t69.5 156.5t24.5 187q0 141 -56 208t-154 67zM862 -66q-39 -182 -147.5 -279t-288.5 -97q-98 0 -165.5 23.5t-111 63.5t-62.5 91t-24 108l158 23 q6 -86 53.5 -132t145.5 -46q119 0 186.5 72.5t102.5 224.5l28 127h-4q-35 -47 -100.5 -90t-163.5 -43q-162 0 -254 102t-92 295q0 150 40 271.5t107.5 205.5t155.5 130t184 46q117 0 181.5 -52t93.5 -144h4q8 37 21.5 89t23.5 83h168q-23 -78 -44.5 -165t-37.5 -161z" />
<glyph unicode="h" horiz-adv-x="1144" d="M457 895h2q18 23 44.5 47.5t61.5 44t80 31.5t100 12q131 0 210 -69.5t79 -184.5q0 -29 -3 -58.5t-7 -51.5l-141 -666h-168l139 662q4 12 6 33.5t2 45.5q0 59 -38 101.5t-124 42.5q-61 0 -112 -24.5t-91 -67.5t-67 -98.5t-39 -116.5l-119 -578h-168l299 1454h175z" />
<glyph unicode="i" horiz-adv-x="552" d="M104 0l213 1006h168l-213 -1006h-168zM356 1214l47 226h181l-47 -226h-181z" />
<glyph unicode="j" horiz-adv-x="567" d="M367 1214l47 226h180l-47 -226h-180zM328 1006h168l-248 -1160q-31 -147 -103.5 -211.5t-197.5 -64.5q-76 0 -128 22.5t-98 57.5l66 127q37 -25 75 -44.5t83 -19.5q59 0 92 39t55 139z" />
<glyph unicode="k" horiz-adv-x="1073" d="M766 0l-227 479l-193 -162l-67 -317h-170l307 1454h168l-189 -905l512 457h242l-483 -414l282 -592h-182z" />
<glyph unicode="l" horiz-adv-x="612" d="M424 1454h168l-238 -1124q-10 -43 -18 -89t2 -73q18 -51 88 -51q29 0 53.5 8t52.5 25l50 -109q-47 -35 -94.5 -51.5t-112.5 -16.5q-86 0 -148.5 48.5t-62.5 146.5q0 39 6 78t14 73z" />
<glyph unicode="m" horiz-adv-x="1456" d="M1018 0l153 705q4 16 6.5 35.5t2.5 35.5q0 51 -25 81t-72 30q-86 0 -139 -65.5t-76 -174.5l-137 -647h-168l148 700q4 18 6 39t2 37q0 53 -25.5 82t-75.5 29q-84 0 -139 -66.5t-78 -179.5l-135 -641h-168l146 721q12 61 23.5 138t19.5 147h162q-4 -29 -9.5 -61t-11.5 -66 h4q14 27 38 54.5t54.5 49t69.5 34.5t86 13q90 0 140 -43t57 -108h4q47 74 113.5 112.5t146.5 38.5q104 0 160.5 -57.5t56.5 -149.5q0 -29 -6 -57.5t-11 -52.5l-155 -713h-168z" />
<glyph unicode="n" horiz-adv-x="1153" d="M455 1006q-4 -33 -9.5 -70t-13.5 -72h4q20 27 48 56.5t66 54t88 40t114 15.5q135 0 213.5 -69.5t78.5 -184.5q0 -29 -3 -58.5t-7 -51.5l-141 -666h-168l139 662q4 12 6 33.5t2 45.5q0 59 -38.5 101.5t-126.5 42.5q-61 0 -114.5 -24.5t-93.5 -67.5t-68 -98.5t-40 -116.5 l-119 -578h-168l146 723q12 59 23.5 136t19.5 147h162z" />
<glyph unicode="o" horiz-adv-x="1122" d="M1016 623q0 -137 -36 -255t-102.5 -205t-160.5 -137.5t-211 -50.5q-80 0 -149.5 25t-121 74t-80 125.5t-28.5 181.5q0 137 36 255t102.5 206t161.5 138t214 50q80 0 148.5 -25.5t118.5 -75.5t79 -127t29 -179zM836 623q0 129 -53.5 197.5t-157.5 68.5q-63 0 -122 -35 t-103 -100.5t-70.5 -159.5t-26.5 -213q0 -264 213 -264q63 0 121.5 35.5t102.5 102.5t70 160t26 208z" />
<glyph unicode="p" horiz-adv-x="1169" d="M889 618q0 150 -54.5 209.5t-146.5 59.5q-74 0 -134 -44t-103 -118t-68 -167t-25 -191q0 -115 57.5 -181.5t168.5 -66.5q57 0 112.5 35.5t98.5 100t68.5 156.5t25.5 207zM297 170q-4 -41 -10 -80t-17 -86l-88 -414h-168l219 1092q16 74 29.5 156t20.5 168h161 q0 -41 -3 -81t-13 -81h4q47 82 124 134t177 52q76 0 137.5 -28.5t104.5 -82t66.5 -127t23.5 -161.5q0 -141 -36 -261t-98.5 -208t-149.5 -137.5t-189 -49.5q-119 0 -191.5 54.5t-99.5 140.5h-4z" />
<glyph unicode="q" horiz-adv-x="1169" d="M303 397q0 -78 14.5 -131t40 -86t62.5 -46t84 -13q74 0 134 43t103 113.5t68 161.5t25 190q0 125 -55.5 192.5t-172.5 67.5q-55 0 -109.5 -34t-97.5 -98.5t-69.5 -155.5t-26.5 -204zM897 836q8 41 20.5 86t26.5 86h166q-16 -53 -34.5 -132t-41.5 -184l-233 -1102h-168 l86 414q10 47 23.5 90t23.5 72h-4q-47 -82 -121 -135.5t-182 -53.5q-74 0 -134.5 29t-104.5 82t-68.5 129t-24.5 168q0 137 37 256t100.5 206t149.5 136t184 49q123 0 194.5 -55t100.5 -141h4z" />
<glyph unicode="r" horiz-adv-x="808" d="M827 850q-25 8 -43 11t-41 3q-156 0 -251 -123t-140 -340l-82 -401h-166l140 686q16 74 28.5 150.5t24.5 169.5h156q-2 -18 -6.5 -45t-9.5 -55.5t-10 -58.5t-9 -50h4q78 119 165 176t195 57q35 0 54.5 -4t37.5 -12z" />
<glyph unicode="s" horiz-adv-x="1062" d="M901 305q0 -164 -105.5 -247t-303.5 -83q-174 0 -274.5 81t-125.5 223l166 32q16 -92 77.5 -142t160.5 -50q102 0 164.5 40t64.5 111q2 61 -33 96t-127 70l-127 45q-94 35 -146 96.5t-52 165.5q0 129 103 208t284 79q152 0 246 -68.5t114 -183.5l-153 -49 q-37 160 -222 160q-94 0 -148 -35t-54 -94q0 -25 5 -44.5t19.5 -36.5t41 -33.5t71.5 -33.5l139 -49q106 -37 160.5 -99.5t54.5 -158.5z" />
<glyph unicode="t" horiz-adv-x="821" d="M686 23q-35 -16 -94.5 -32t-136.5 -16q-115 0 -183.5 57.5t-68.5 151.5q0 27 5 75t25 140l101 463h-201l25 144h207l67 319l186 84l-86 -403h277l-27 -144h-280l-99 -465q-20 -92 -25 -132t-5 -66q0 -35 22.5 -57.5t83.5 -22.5q51 0 99.5 11t76.5 22z" />
<glyph unicode="u" horiz-adv-x="1157" d="M729 0q4 33 9 69.5t14 71.5h-4q-20 -29 -48 -57.5t-66 -53t-88 -40t-114 -15.5q-135 0 -212 70t-77 184q0 29 3.5 58.5t7.5 52.5l141 666h168l-139 -662q-4 -12 -6.5 -33.5t-2.5 -46.5q0 -59 37 -101t125 -42q61 0 114.5 24.5t93.5 67.5t67.5 98.5t40.5 116.5l118 578 h168l-145 -723q-12 -59 -23.5 -136t-19.5 -147h-162z" />
<glyph unicode="v" horiz-adv-x="976" d="M481 0h-157l-158 1006h178l82 -578q6 -47 10 -101.5t2 -119.5h4q25 59 48.5 112.5t54.5 108.5l317 578h191z" />
<glyph unicode="w" horiz-adv-x="1372" d="M946 0h-180l-6 518q-2 53 -1 130t5 140h-6q-20 -68 -47 -136t-49 -122l-242 -530h-191l-30 1006h159l11 -572q2 -63 1 -113.5t-5 -101.5h6q16 53 35.5 105.5t44.5 107.5l247 574h207l6 -572q0 -59 -3 -110.5t-9 -110.5h4q18 59 38 113.5t42 107.5l250 572h184z" />
<glyph unicode="x" horiz-adv-x="1007" d="M676 0l-178 379l-336 -379h-213l473 524l-236 482h179l174 -355l305 355h213l-447 -494l258 -512h-192z" />
<glyph unicode="y" horiz-adv-x="974" d="M336 -260q-47 -84 -118 -127t-175 -43q-57 0 -106.5 15.5t-100.5 43.5l51 129q39 -23 77 -35t81 -12q57 0 99 26.5t77 90.5l96 172l-157 1006h188l76 -578q8 -61 14 -105t8 -98h5q23 51 44 97.5t54 105.5l315 578h185z" />
<glyph unicode="z" horiz-adv-x="1017" d="M6 0l23 123l731 743q-31 -2 -64 -2q-29 -2 -64.5 -2h-70.5h-352l29 144h792l-26 -121l-744 -744q25 0 51 2q23 0 52.5 1t64.5 1h440l-28 -145h-834z" />
<glyph unicode="{" horiz-adv-x="768" d="M170 608q45 2 75.5 16.5t51 39t34 60.5t23.5 85l90 403q29 125 106 199t208 74h110l-30 -142h-76q-47 0 -76 -17t-45 -44t-23.5 -58.5t-13.5 -58.5l-80 -366q-27 -121 -77 -181.5t-148 -85.5l2 -4q80 -29 104.5 -99.5t8.5 -149.5l-74 -347q-8 -37 -15.5 -73.5t-5.5 -65.5 q2 -61 89 -61h88l-31 -142h-88q-98 0 -159.5 55.5t-63.5 145.5q0 66 16 143l70 334q23 102 2 148.5t-103 52.5z" />
<glyph unicode="|" horiz-adv-x="573" d="M270 -483v2203h144v-2203h-144z" />
<glyph unicode="}" horiz-adv-x="768" d="M621 467q-47 -4 -77 -17.5t-50.5 -38t-34 -60.5t-23.5 -85l-90 -403q-29 -125 -105.5 -199t-207.5 -74h-111l31 142h76q47 0 75.5 17.5t45 44t23.5 58l13 58.5l80 366q27 121 77 181.5t149 85.5l-3 4q-80 29 -104.5 99.5t-7.5 150.5l74 346q8 37 15 73.5t5 65.5 q-4 61 -88 61h-88l31 142h88q98 0 159.5 -55.5t63.5 -145.5q0 -66 -16 -143l-70 -334q-23 -102 -2.5 -148.5t102.5 -52.5z" />
<glyph unicode="~" horiz-adv-x="1331" d="M768 528q29 -18 55.5 -27t73.5 -9t86 30.5t88 120.5l109 -59q-23 -47 -50.5 -88t-63.5 -72t-79 -49.5t-98 -18.5q-37 0 -69 5.5t-66.5 20.5t-78.5 41t-106 66q-29 18 -55.5 27.5t-73.5 9.5t-86 -30.5t-88 -120.5l-108 59q23 45 50.5 87t63 73t78.5 49.5t99 18.5 q37 0 68.5 -6.5t66 -20.5t79 -41t105.5 -66z" />
<glyph unicode="&#xa1;" horiz-adv-x="724" d="M156 0q59 262 108 467t86 348q43 168 80 293h123q-16 -125 -43 -293q-23 -143 -58.5 -348t-89.5 -467h-206zM668 1454l-45 -219h-209l45 219h209z" />
<glyph unicode="&#xa2;" horiz-adv-x="1187" d="M446 -14q-137 29 -206.5 133t-69.5 266q0 135 38 249t104.5 197.5t157.5 135t200 61.5l28 133h111l-29 -137q129 -16 196.5 -98t76.5 -203l-170 -23q-6 74 -38 120t-95 61l-164 -762q98 4 156.5 65.5t82.5 149.5l158 -53q-20 -63 -55 -119t-87.5 -97.5t-123 -65.5 t-162.5 -24l-27 -131h-110zM350 381q0 -92 34 -154.5t95 -89.5l160 744q-63 -14 -116.5 -55.5t-91.5 -106t-59.5 -150.5t-21.5 -188z" />
<glyph unicode="&#xa3;" horiz-adv-x="1187" d="M530 758q0 -102 -9 -199.5t-32.5 -180.5t-66.5 -145.5t-113 -95.5q25 2 49.5 3t54 2t66.5 1h84h408l-21 -143h-874l18 139q98 16 150.5 74.5t78 143.5t31.5 188.5t11 212.5h-152l18 123h138q0 295 122.5 449.5t366.5 154.5q166 0 258 -83t92 -216q0 -51 -5 -82t-17 -66 l-154 4q8 29 13.5 55.5t5.5 67.5q0 88 -51.5 132t-143.5 44q-156 0 -241 -114.5t-85 -345.5h359l-19 -123h-340z" />
<glyph unicode="&#xa4;" horiz-adv-x="1187" d="M643 1128q74 0 142.5 -23.5t123.5 -64.5l123 121l86 -94l-117 -117q88 -117 89 -268q0 -78 -24 -146.5t-67 -121.5l119 -121l-88 -90l-119 119q-55 -41 -124.5 -66t-143.5 -25q-78 0 -146.5 24t-121.5 67q-29 -31 -62.5 -64t-58.5 -55l-94 88l125 121q-45 53 -68.5 122.5 t-23.5 147.5q0 74 23.5 141.5t64.5 124.5l-121 117l94 94l121 -119q116 88 268 88zM344 680q0 -66 21.5 -122t60.5 -97t94 -63.5t121 -22.5t121 22.5t94 63.5t60.5 97t21.5 122t-21.5 122t-60.5 96t-94 62.5t-121 22.5t-121 -22.5t-94 -62.5t-60.5 -96t-21.5 -122z" />
<glyph unicode="&#xa5;" horiz-adv-x="1187" d="M786 780h271l-21 -121h-321l-29 -145h315l-22 -121h-317l-80 -393h-183l80 393h-315l18 121h322l31 145h-314l17 121h278l-264 674h207l205 -569l452 569h225z" />
<glyph unicode="&#xa6;" horiz-adv-x="573" d="M270 958v762h144v-762h-144zM270 -276v761h144v-761h-144z" />
<glyph unicode="&#xa7;" horiz-adv-x="1277" d="M719 115q49 -47 73.5 -99.5t24.5 -124.5q0 -57 -23.5 -105t-64.5 -82t-97.5 -53.5t-119.5 -19.5q-117 0 -192.5 60.5t-75.5 152.5q0 23 5 44.5t13 37.5l152 2q-12 -29 -13 -59q0 -43 29 -70.5t88 -27.5q63 0 98 30.5t35 89.5q0 47 -19.5 83t-49.5 79l-193 260 q-49 68 -82 123.5t-51 102.5t-25.5 89t-7.5 83q0 68 22.5 124t61.5 98t92.5 64.5t114.5 22.5q47 0 78 -5t57 -16q-49 47 -73.5 99.5t-24.5 124.5q0 57 23.5 105t64.5 82t96.5 53.5t120.5 19.5q117 0 192.5 -60.5t75.5 -152.5q0 -23 -5 -44.5t-13 -37.5l-152 -2q12 27 13 59 q0 43 -29 70.5t-88 27.5q-63 0 -98 -30.5t-35 -89.5q0 -47 19.5 -83t49.5 -79l193 -260q49 -68 82 -123t51 -102.5t25.5 -89.5t7.5 -83q0 -68 -22.5 -124t-61.5 -98t-92.5 -64.5t-114.5 -22.5q-47 0 -77.5 5.5t-57.5 15.5zM516 412q68 -92 138.5 -141.5t170.5 -49.5 q78 0 121 48t43 134q0 33 -5 63t-20.5 63.5t-42 74.5t-69.5 98q-80 109 -150.5 152t-156.5 43q-76 0 -121 -50t-45 -136q0 -33 6 -63t21.5 -63.5t42 -75.5t67.5 -97z" />
<glyph unicode="&#xa8;" horiz-adv-x="450" d="M295 1196l47 221h170l-47 -221h-170zM-63 1196l47 221h170l-48 -221h-169z" />
<glyph unicode="&#xa9;" horiz-adv-x="1765" d="M1290 557q-6 -49 -27.5 -102.5t-61.5 -97.5t-103.5 -72.5t-155.5 -28.5q-86 0 -158.5 37t-125 100.5t-82 150.5t-29.5 189t28.5 189.5t82 152t128 101t164.5 36.5q78 0 137.5 -26.5t100.5 -68.5t62.5 -93t25.5 -102l-119 -19q-12 90 -59 145.5t-152 55.5 q-55 0 -105 -24.5t-88 -71.5t-59.5 -117t-21.5 -158t22.5 -156.5t59.5 -115.5t87 -71.5t105 -24.5q109 0 160 60t61 144zM303 727q0 -135 50 -255t137.5 -209t206 -140t255.5 -51t255 51t206 140t138.5 209t50.5 255t-50.5 254t-138.5 208t-205.5 141t-255.5 52 q-137 0 -255.5 -52t-206 -141t-137.5 -208t-50 -254zM193 727q0 158 58 296t161.5 240.5t242 161t297.5 58.5q160 0 298.5 -58.5t241.5 -161t161.5 -240.5t58.5 -296t-58.5 -296t-161.5 -240.5t-241.5 -161t-298.5 -58.5t-298 58.5t-241.5 161t-161.5 240.5t-58 296z" />
<glyph unicode="&#xaa;" horiz-adv-x="927" d="M866 713q-74 0 -116.5 32.5t-42.5 96.5q-51 -59 -117 -97t-158 -38q-98 0 -155.5 48t-57.5 142q0 84 51.5 146.5t173.5 86.5q20 4 59.5 12.5t80.5 18.5t77.5 18.5t53.5 12.5q41 10 55 31.5t14 66.5q0 37 -35.5 59.5t-113.5 22.5q-94 0 -140 -36t-59 -87l-110 27 q12 84 96 142.5t219 58.5q127 0 195.5 -51.5t68.5 -129.5q0 -20 -2 -36.5t-6 -32.5l-66 -303q-4 -16 -5 -34t-1 -26q0 -51 58 -59zM754 1118q-10 -8 -22.5 -12t-35.5 -10q-16 -4 -48 -13.5t-67.5 -18.5t-70.5 -18.5t-55 -15.5q-59 -16 -84 -52t-25 -81q0 -41 24.5 -60.5 t67.5 -19.5q80 0 152 44t135 126z" />
<glyph unicode="&#xab;" horiz-adv-x="966" d="M285 508l198 -330l-88 -63l-280 401l374 402l80 -76zM629 508l198 -330l-88 -63l-280 401l375 402l79 -76z" />
<glyph unicode="&#xac;" horiz-adv-x="1331" d="M1051 305v334h-883v133h1020v-467h-137z" />
<glyph unicode="&#xad;" horiz-adv-x="940" d="M188 514l31 148h612l-30 -148h-613z" />
<glyph unicode="&#xae;" horiz-adv-x="1765" d="M1298 942q0 -109 -49 -168t-119 -84l164 -420h-141l-137 400h-199v-400h-123v926h310q61 0 114 -17.5t93 -50t63.5 -80t23.5 -106.5zM1176 936q0 72 -46.5 111.5t-132.5 39.5h-180v-309h174q78 0 131.5 35t53.5 123zM303 727q0 -135 50 -255t137.5 -209t206 -140 t255.5 -51t255 51t206 140t138.5 209t50.5 255t-50.5 254t-138.5 208t-205.5 141t-255.5 52q-137 0 -255.5 -52t-206 -141t-137.5 -208t-50 -254zM193 727q0 158 58 296t161.5 240.5t242 161t297.5 58.5q160 0 298.5 -58.5t241.5 -161t161.5 -240.5t58.5 -296t-58.5 -296 t-161.5 -240.5t-241.5 -161t-298.5 -58.5t-298 58.5t-241.5 161t-161.5 240.5t-58 296z" />
<glyph unicode="&#xaf;" horiz-adv-x="450" d="M-51 1241l26 119h512l-26 -119h-512z" />
<glyph unicode="&#xb0;" horiz-adv-x="950" d="M926 1143q0 -66 -24.5 -122t-66.5 -98t-99.5 -67t-121.5 -25q-66 0 -122 25t-98 67t-66.5 98t-24.5 122q0 63 24.5 120.5t66.5 99.5t98.5 66.5t121.5 24.5q63 0 121 -24.5t100 -66.5t66.5 -99.5t24.5 -120.5zM428 1143q0 -78 54.5 -132.5t131.5 -54.5q78 0 132.5 54.5 t54.5 132.5t-54.5 132t-132.5 54t-132 -54t-54 -132z" />
<glyph unicode="&#xb1;" horiz-adv-x="1331" d="M743 537v-330h-131v330h-419v127h419v329h131v-329h420v-127h-420zM1163 127v-127h-970v127h970z" />
<glyph unicode="&#xb2;" horiz-adv-x="800" d="M829 1237q0 -84 -47 -148.5t-143 -136.5q-53 -41 -107.5 -78.5t-138.5 -85.5q29 4 54.5 4.5t58.5 0.5h221l-18 -119h-516l20 127q51 31 94 58.5t82 55t77 55t79 58.5q86 66 118.5 115t32.5 96q0 35 -26.5 57.5t-73.5 22.5q-59 0 -107.5 -41t-70.5 -107l-115 39 q31 100 110 163t187 63q104 0 166.5 -53.5t62.5 -145.5z" />
<glyph unicode="&#xb3;" horiz-adv-x="839" d="M782 913q0 -113 -80.5 -182t-222.5 -69q-100 0 -168.5 50t-89.5 150l121 45q18 -63 53 -99t94 -36q78 0 121 42t43 101q0 63 -40 87t-138 24h-33l13 100h41q106 0 153 36t47 85q0 39 -28.5 58.5t-77.5 19.5q-66 0 -103.5 -32.5t-58.5 -80.5l-111 54q33 82 101.5 126 t177.5 44q111 0 172 -53.5t61 -135.5q0 -70 -44 -109.5t-113 -54.5v-6q47 -12 78.5 -52t31.5 -112z" />
<glyph unicode="&#xb4;" horiz-adv-x="450" d="M51 1143l-37 80l428 262l64 -146z" />
<glyph unicode="&#xb5;" horiz-adv-x="1157" d="M729 0q4 33 9 69.5t14 71.5h-4q-20 -29 -48 -57.5t-66 -53t-88 -40t-114 -15.5q-66 0 -105.5 25t-64.5 70h-4q-8 -41 -16 -86q-8 -39 -16.5 -88.5t-18.5 -96.5l-45 -209h-164l297 1416h168l-139 -662q-4 -12 -6.5 -33.5t-2.5 -46.5q0 -59 37 -101t125 -42 q61 0 114.5 24.5t93.5 67.5t67.5 98.5t40.5 116.5l118 578h168l-145 -723q-12 -59 -23.5 -136t-19.5 -147h-162z" />
<glyph unicode="&#xb6;" horiz-adv-x="1335" d="M604 590q-82 0 -150.5 27.5t-117.5 75.5t-78 116t-29 147q-2 119 40 211.5t118 155.5t178.5 95t222.5 32h539l-371 -1743h-147l346 1628h-246l-346 -1628h-145z" />
<glyph unicode="&#xb7;" horiz-adv-x="579" d="M197 428v219h213v-219h-213z" />
<glyph unicode="&#xb8;" horiz-adv-x="450" d="M127 0h80l-78 -111l2 -2q35 14 72 15q61 0 106 -35t45 -94q0 -78 -54 -121t-146 -43q-59 0 -98.5 13t-80.5 42l39 68q27 -16 57.5 -28.5t59.5 -12.5q41 0 64.5 19.5t23.5 56.5q0 23 -18.5 39t-48.5 16q-39 0 -78 -25l-47 39z" />
<glyph unicode="&#xb9;" horiz-adv-x="722" d="M694 1423l-157 -749h-140l121 575q-25 -20 -49.5 -38.5t-52 -38t-59 -41t-70.5 -48.5l-64 95q82 55 166 118.5t162 126.5h143z" />
<glyph unicode="&#xba;" horiz-adv-x="944" d="M946 1169q0 -102 -30.5 -186t-85 -144.5t-128 -94t-157.5 -33.5q-61 0 -115.5 18.5t-94.5 55t-62.5 94t-22.5 135.5q0 100 30.5 185t85 146.5t129 95.5t160.5 34q61 0 113.5 -18.5t92.5 -57.5t62.5 -96.5t22.5 -133.5zM813 1169q0 94 -43 148.5t-127 54.5 q-49 0 -96 -23.5t-84 -69.5t-59.5 -112.5t-22.5 -152.5q0 -94 43 -147.5t129 -53.5q49 0 96 24.5t83 70.5t58.5 111.5t22.5 149.5z" />
<glyph unicode="&#xbb;" horiz-adv-x="966" d="M721 524l-199 330l88 64l281 -402l-375 -401l-80 75zM377 524l-199 330l88 64l281 -402l-375 -401l-80 75z" />
<glyph unicode="&#xbc;" horiz-adv-x="1679" d="M1335 168l-35 -168h-129l33 168h-321l12 86l438 496h125l-100 -476h112l-16 -106h-119zM1262 436q6 33 10 53.5t14 55.5h-4q-20 -27 -38.5 -48.5t-41.5 -47.5l-147 -175h172zM727 1423l-158 -749h-139l121 575q-25 -20 -49.5 -38.5t-52 -38t-59.5 -41t-71 -48.5l-63 95 q82 55 166 118.5t162 126.5h143zM473 -43l-111 61l857 1452l108 -63z" />
<glyph unicode="&#xbd;" horiz-adv-x="1679" d="M1528 563q0 -84 -47 -148.5t-144 -135.5q-53 -41 -107 -79t-138 -85q29 4 54 4h58h221l-18 -119h-516l20 127q51 31 94.5 58.5t82 55t76.5 55.5t79 58q86 66 119 115t33 96q0 35 -27 57.5t-74 22.5q-59 0 -107 -41t-71 -106l-115 39q31 100 110 162.5t187 62.5 q104 0 167 -53.5t63 -145.5zM725 1423l-158 -749h-139l121 575q-25 -20 -49.5 -38.5t-52 -38t-59.5 -41t-71 -48.5l-63 95q82 55 166 118.5t162 126.5h143zM471 -43l-111 61l857 1452l108 -63z" />
<glyph unicode="&#xbe;" horiz-adv-x="1679" d="M756 913q0 -113 -81 -182t-222 -69q-100 0 -169 50t-89 150l120 45q18 -63 53 -99t95 -36q78 0 121 42t43 101q0 63 -40 87t-138 24h-33l12 100h41q106 0 153.5 36t47.5 85q0 39 -29 58.5t-78 19.5q-66 0 -103.5 -32.5t-58.5 -80.5l-110 54q33 82 101.5 126t176.5 44 q111 0 172.5 -53.5t61.5 -135.5q0 -70 -44 -109.5t-114 -54.5v-6q47 -12 79 -52t32 -112zM1446 168l-35 -168h-129l33 168h-322l13 86l438 496h125l-101 -476h113l-16 -106h-119zM1372 436q6 33 10 53.5t15 55.5h-4q-20 -27 -39 -48.5t-41 -47.5l-148 -175h172zM584 -43 l-111 61l856 1452l109 -63z" />
<glyph unicode="&#xbf;" horiz-adv-x="1107" d="M141 295q0 88 32 161.5t89 131t135 95.5t168 52l80 352h170l-98 -462q-182 -16 -293 -97.5t-111 -236.5q0 -80 51.5 -127t149.5 -47q111 0 179.5 64.5t86.5 162.5l154 -39q-10 -72 -45 -132t-90.5 -106.5t-130 -72t-162.5 -25.5q-174 0 -269.5 86t-95.5 240zM913 1454 l-45 -219h-213l45 219h213z" />
<glyph unicode="&#xc0;" horiz-adv-x="1210" d="M872 0l-28 315h-518l-164 -315h-203l782 1454h154l168 -1454h-191zM793 913q-6 70 -12.5 145t-6.5 142h-4q-29 -68 -56.5 -122t-62.5 -126l-241 -477h424zM649 1772l92 143l375 -262l-45 -80z" />
<glyph unicode="&#xc1;" horiz-adv-x="1210" d="M872 0l-28 315h-518l-164 -315h-203l782 1454h154l168 -1454h-191zM793 913q-6 70 -12.5 145t-6.5 142h-4q-29 -68 -56.5 -122t-62.5 -126l-241 -477h424zM676 1573l-37 80l428 262l63 -146z" />
<glyph unicode="&#xc2;" horiz-adv-x="1210" d="M872 0l-28 315h-518l-164 -315h-203l782 1454h154l168 -1454h-191zM793 913q-6 70 -12.5 145t-6.5 142h-4q-29 -68 -56.5 -122t-62.5 -126l-241 -477h424zM625 1573l-58 88l351 254l235 -260l-86 -82l-178 164z" />
<glyph unicode="&#xc3;" horiz-adv-x="1210" d="M872 0l-28 315h-518l-164 -315h-203l782 1454h154l168 -1454h-191zM793 913q-6 70 -12.5 145t-6.5 142h-4q-29 -68 -56.5 -122t-62.5 -126l-241 -477h424zM846 1661q-25 25 -43.5 34t-44.5 9q-35 0 -54.5 -21.5t-29.5 -64.5h-92q8 94 58 152.5t138 58.5q45 0 75 -12.5 t65 -42.5q23 -18 41 -30.5t40 -12.5q35 0 54.5 21.5t29.5 64.5h93q-8 -94 -58.5 -152.5t-138.5 -58.5q-45 0 -74.5 13t-58.5 42z" />
<glyph unicode="&#xc4;" horiz-adv-x="1210" d="M872 0l-28 315h-518l-164 -315h-203l782 1454h154l168 -1454h-191zM793 913q-6 70 -12.5 145t-6.5 142h-4q-29 -68 -56.5 -122t-62.5 -126l-241 -477h424zM956 1626l48 221h170l-48 -221h-170zM598 1626l47 221h170l-47 -221h-170z" />
<glyph unicode="&#xc5;" horiz-adv-x="1210" d="M872 0l-28 315h-518l-164 -315h-203l782 1454h154l168 -1454h-191zM793 913q-6 70 -12.5 145t-6.5 142h-4q-29 -68 -56.5 -122t-62.5 -126l-241 -477h424zM1069 1706q0 -82 -55.5 -140.5t-136.5 -58.5q-41 0 -75 15.5t-60.5 43t-41 63.5t-14.5 77q0 82 54.5 139.5 t136.5 57.5q84 0 138 -57.5t54 -139.5zM772 1706q0 -47 28.5 -79t76.5 -32q47 0 75.5 32t28.5 79t-28.5 79t-75.5 32t-76 -32t-29 -79z" />
<glyph unicode="&#xc6;" horiz-adv-x="1622" d="M1737 1454l-33 -158h-584l-100 -471h465l-33 -157h-465l-108 -510h583l-32 -158h-773l72 338h-342l-227 -338h-215l1011 1454h781zM487 489h275l127 596z" />
<glyph unicode="&#xc7;" horiz-adv-x="1220" d="M506 -23q-162 29 -247 157t-85 353q0 229 52.5 413.5t144.5 315t215 200t264 69.5q94 0 163.5 -32t115 -89t68 -134t24.5 -167l-181 -25q-4 147 -57 218t-164 71q-90 0 -174 -58.5t-147.5 -169t-101.5 -268t-38 -356.5q0 -180 68 -264t172 -84q76 0 134.5 30.5t100 82 t66.5 115t35 128.5l168 -49q-16 -98 -60.5 -183t-110 -147.5t-149.5 -98.5t-180 -36h-24l-56 -80l2 -2q35 14 72 15q61 0 106.5 -35t45.5 -94q0 -78 -54.5 -121t-146.5 -43q-59 0 -98 13t-80 42l39 68q27 -16 57.5 -28.5t58.5 -12.5q41 0 64.5 19.5t23.5 56.5q0 23 -18.5 39 t-48.5 16q-39 0 -78 -25l-47 39z" />
<glyph unicode="&#xc8;" horiz-adv-x="1118" d="M113 0l307 1454h813l-33 -158h-625l-100 -471h506l-33 -157h-506l-108 -510h624l-32 -158h-813zM643 1772l92 143l375 -262l-45 -80z" />
<glyph unicode="&#xc9;" horiz-adv-x="1118" d="M113 0l307 1454h813l-33 -158h-625l-100 -471h506l-33 -157h-506l-108 -510h624l-32 -158h-813zM686 1573l-37 80l428 262l64 -146z" />
<glyph unicode="&#xca;" horiz-adv-x="1118" d="M113 0l307 1454h813l-33 -158h-625l-100 -471h506l-33 -157h-506l-108 -510h624l-32 -158h-813zM629 1575l-58 88l351 254l235 -260l-86 -82l-178 164z" />
<glyph unicode="&#xcb;" horiz-adv-x="1118" d="M113 0l307 1454h813l-33 -158h-625l-100 -471h506l-33 -157h-506l-108 -510h624l-32 -158h-813zM961 1626l47 221h170l-48 -221h-169zM602 1626l47 221h170l-47 -221h-170z" />
<glyph unicode="&#xcc;" horiz-adv-x="610" d="M119 0l307 1454h188l-307 -1454h-188zM334 1772l92 143l375 -262l-45 -80z" />
<glyph unicode="&#xcd;" horiz-adv-x="610" d="M119 0l307 1454h188l-307 -1454h-188zM377 1573l-37 80l428 262l63 -146z" />
<glyph unicode="&#xce;" horiz-adv-x="610" d="M119 0l307 1454h188l-307 -1454h-188zM324 1577l-58 88l350 254l236 -260l-86 -82l-178 164z" />
<glyph unicode="&#xcf;" horiz-adv-x="610" d="M119 0l307 1454h188l-307 -1454h-188zM647 1626l47 221h170l-47 -221h-170zM289 1626l47 221h170l-47 -221h-170z" />
<glyph unicode="&#xd0;" horiz-adv-x="1306" d="M119 795h166l139 659h309q53 0 106.5 -6t108.5 -23q145 -41 225 -168t80 -337q0 -205 -50 -374t-144 -291t-230.5 -188.5t-310.5 -66.5h-401l139 664h-160zM1065 885q0 117 -19.5 196.5t-64.5 127.5t-117.5 68.5t-179.5 20.5h-104l-107 -503h252l-23 -131h-258l-106 -508 h215q117 0 212 62.5t161.5 164.5t102.5 233.5t36 268.5z" />
<glyph unicode="&#xd1;" horiz-adv-x="1380" d="M659 1454l240 -1005q14 -59 25.5 -113.5t25.5 -140.5h11q12 86 23 164.5t32 170.5l196 924h174l-294 -1454h-269l-233 963q-8 37 -15.5 67.5t-12.5 61t-10 63.5t-11 74h-4q-6 -43 -12.5 -79t-12.5 -71t-13 -70.5t-16 -80.5l-186 -928h-178l295 1454h245zM932 1661 q-25 25 -43.5 34t-44.5 9q-35 0 -54.5 -21.5t-29.5 -64.5h-92q8 94 58 152.5t138 58.5q45 0 75 -12.5t65 -42.5q23 -18 41 -30.5t40 -12.5q35 0 54.5 21.5t29.5 64.5h93q-8 -94 -58.5 -152.5t-138.5 -58.5q-45 0 -74.5 13t-58.5 42z" />
<glyph unicode="&#xd2;" horiz-adv-x="1306" d="M1257 991q0 -213 -48 -399t-137 -324.5t-215 -218.5t-282 -80q-84 0 -157.5 32t-129 94.5t-87 156.5t-31.5 219q0 199 50 383t142.5 323.5t220.5 223.5t285 84q178 0 283.5 -128t105.5 -366zM1071 981q0 180 -61.5 263t-165.5 83t-193.5 -67.5t-155 -183t-102.5 -271.5 t-37 -334q0 -186 62.5 -265t179.5 -79q98 0 185 67.5t150.5 184.5t100.5 272.5t37 329.5zM690 1772l92 143l375 -262l-45 -80z" />
<glyph unicode="&#xd3;" horiz-adv-x="1306" d="M1257 991q0 -213 -48 -399t-137 -324.5t-215 -218.5t-282 -80q-84 0 -157.5 32t-129 94.5t-87 156.5t-31.5 219q0 199 50 383t142.5 323.5t220.5 223.5t285 84q178 0 283.5 -128t105.5 -366zM1071 981q0 180 -61.5 263t-165.5 83t-193.5 -67.5t-155 -183t-102.5 -271.5 t-37 -334q0 -186 62.5 -265t179.5 -79q98 0 185 67.5t150.5 184.5t100.5 272.5t37 329.5zM707 1573l-37 80l428 262l63 -146z" />
<glyph unicode="&#xd4;" horiz-adv-x="1306" d="M1257 991q0 -213 -48 -399t-137 -324.5t-215 -218.5t-282 -80q-84 0 -157.5 32t-129 94.5t-87 156.5t-31.5 219q0 199 50 383t142.5 323.5t220.5 223.5t285 84q178 0 283.5 -128t105.5 -366zM1071 981q0 180 -61.5 263t-165.5 83t-193.5 -67.5t-155 -183t-102.5 -271.5 t-37 -334q0 -186 62.5 -265t179.5 -79q98 0 185 67.5t150.5 184.5t100.5 272.5t37 329.5zM664 1577l-58 88l350 254l236 -260l-86 -82l-178 164z" />
<glyph unicode="&#xd5;" horiz-adv-x="1306" d="M1257 991q0 -213 -48 -399t-137 -324.5t-215 -218.5t-282 -80q-84 0 -157.5 32t-129 94.5t-87 156.5t-31.5 219q0 199 50 383t142.5 323.5t220.5 223.5t285 84q178 0 283.5 -128t105.5 -366zM1071 981q0 180 -61.5 263t-165.5 83t-193.5 -67.5t-155 -183t-102.5 -271.5 t-37 -334q0 -186 62.5 -265t179.5 -79q98 0 185 67.5t150.5 184.5t100.5 272.5t37 329.5zM883 1661q-25 25 -43.5 34t-44.5 9q-35 0 -54.5 -21.5t-29.5 -64.5h-93q8 94 58.5 152.5t138.5 58.5q45 0 75 -12.5t64 -42.5q23 -18 41.5 -30.5t40.5 -12.5q35 0 54.5 21.5 t29.5 64.5h92q-8 -94 -58 -152.5t-138 -58.5q-45 0 -74.5 13t-58.5 42z" />
<glyph unicode="&#xd6;" horiz-adv-x="1306" d="M1257 991q0 -213 -48 -399t-137 -324.5t-215 -218.5t-282 -80q-84 0 -157.5 32t-129 94.5t-87 156.5t-31.5 219q0 199 50 383t142.5 323.5t220.5 223.5t285 84q178 0 283.5 -128t105.5 -366zM1071 981q0 180 -61.5 263t-165.5 83t-193.5 -67.5t-155 -183t-102.5 -271.5 t-37 -334q0 -186 62.5 -265t179.5 -79q98 0 185 67.5t150.5 184.5t100.5 272.5t37 329.5zM983 1626l47 221h170l-47 -221h-170zM625 1626l47 221h170l-47 -221h-170z" />
<glyph unicode="&#xd7;" horiz-adv-x="1331" d="M678 434l-334 -334l-90 90l334 334l-334 334l90 90l334 -334l334 334l90 -90l-334 -334l334 -334l-90 -90z" />
<glyph unicode="&#xd8;" horiz-adv-x="1306" d="M1227 1208q31 -96 30 -217q0 -213 -48 -399t-137 -324.5t-215 -218.5t-282 -80q-106 0 -194 49.5t-143 149.5l-105 -111l-67 62l133 141q-29 92 -29 211q0 199 50 383t142.5 323.5t220.5 223.5t285 84q217 0 320 -185l98 105l68 -64zM1071 981q0 16 -1 30.5t-1 30.5 l-696 -733q25 -98 82 -140t143 -42q98 0 185 67.5t150.5 184.5t100.5 272.5t37 329.5zM356 426l693 729q-27 88 -80.5 130t-124.5 42q-104 0 -193.5 -67.5t-155 -183t-102.5 -271.5t-37 -334v-45z" />
<glyph unicode="&#xd9;" horiz-adv-x="1314" d="M608 -31q-104 0 -182 24.5t-130 68.5t-79 103.5t-29 129.5q-2 39 4.5 91t18.5 106l205 962h184l-213 -1008q-8 -35 -12 -69.5t-4 -57.5q0 -98 63.5 -146t179.5 -48q119 0 202 75.5t120 250.5l211 1003h188l-221 -1034q-27 -121 -73 -207t-110.5 -140.5t-145.5 -79 t-177 -24.5zM686 1772l92 143l375 -262l-45 -80z" />
<glyph unicode="&#xda;" horiz-adv-x="1314" d="M608 -31q-104 0 -182 24.5t-130 68.5t-79 103.5t-29 129.5q-2 39 4.5 91t18.5 106l205 962h184l-213 -1008q-8 -35 -12 -69.5t-4 -57.5q0 -98 63.5 -146t179.5 -48q119 0 202 75.5t120 250.5l211 1003h188l-221 -1034q-27 -121 -73 -207t-110.5 -140.5t-145.5 -79 t-177 -24.5zM707 1573l-37 80l428 262l63 -146z" />
<glyph unicode="&#xdb;" horiz-adv-x="1314" d="M608 -31q-104 0 -182 24.5t-130 68.5t-79 103.5t-29 129.5q-2 39 4.5 91t18.5 106l205 962h184l-213 -1008q-8 -35 -12 -69.5t-4 -57.5q0 -98 63.5 -146t179.5 -48q119 0 202 75.5t120 250.5l211 1003h188l-221 -1034q-27 -121 -73 -207t-110.5 -140.5t-145.5 -79 t-177 -24.5zM678 1571l-57 88l350 254l235 -260l-86 -82l-178 164z" />
<glyph unicode="&#xdc;" horiz-adv-x="1314" d="M608 -31q-104 0 -182 24.5t-130 68.5t-79 103.5t-29 129.5q-2 39 4.5 91t18.5 106l205 962h184l-213 -1008q-8 -35 -12 -69.5t-4 -57.5q0 -98 63.5 -146t179.5 -48q119 0 202 75.5t120 250.5l211 1003h188l-221 -1034q-27 -121 -73 -207t-110.5 -140.5t-145.5 -79 t-177 -24.5zM997 1626l47 221h170l-47 -221h-170zM639 1626l47 221h170l-47 -221h-170z" />
<glyph unicode="&#xdd;" horiz-adv-x="1150" d="M694 629l-127 -629h-182l129 635l-276 819h206l191 -633l467 633h225zM621 1573l-37 80l428 262l63 -146z" />
<glyph unicode="&#xde;" horiz-adv-x="1206" d="M1214 877q0 -119 -39.5 -210.5t-113.5 -153.5t-177.5 -94t-230.5 -32h-272l-82 -387h-184l307 1454h184l-47 -223h250q201 0 303 -97t102 -257zM1030 868q0 96 -65.5 151.5t-229.5 55.5h-209l-112 -532h211q213 0 309 85.5t96 239.5z" />
<glyph unicode="&#xdf;" horiz-adv-x="1236" d="M338 1092q18 88 56 159.5t96.5 123.5t136.5 81t176 29q166 0 262 -84t96 -236q0 -80 -26.5 -138t-69.5 -99t-97.5 -65.5t-107.5 -35.5l-2 -4q94 -16 157.5 -90t63.5 -215q0 -139 -39 -240.5t-105.5 -169t-154.5 -100.5t-186 -33q-102 0 -184 33l41 139q31 -10 65.5 -19 t71.5 -9q141 0 229 94t88 305q0 133 -77.5 184.5t-237.5 51.5l22 135q197 0 285 71.5t88 200.5q0 86 -49 131t-141 45q-117 0 -192 -66.5t-103 -197.5l-228 -1073h-166z" />
<glyph unicode="&#xe0;" horiz-adv-x="1167" d="M621 887q-74 0 -134.5 -43t-102.5 -112.5t-64.5 -160t-22.5 -184.5q0 -137 52 -200.5t147 -63.5q74 0 135 39t106 106.5t69.5 156.5t24.5 187q0 141 -56 208t-154 67zM936 287q-10 -49 -12 -122t2 -165h-172q-4 35 -6.5 66.5t0.5 60.5h-5q-37 -55 -106.5 -101t-167.5 -46 q-162 0 -254 104t-92 303q0 147 40 266t107.5 203t155.5 129t184 45q117 0 181.5 -52t93.5 -144h4q8 37 21.5 89t23.5 83h168q-23 -78 -44.5 -165t-37.5 -161zM492 1341l92 144l374 -262l-45 -80z" />
<glyph unicode="&#xe1;" horiz-adv-x="1167" d="M621 887q-74 0 -134.5 -43t-102.5 -112.5t-64.5 -160t-22.5 -184.5q0 -137 52 -200.5t147 -63.5q74 0 135 39t106 106.5t69.5 156.5t24.5 187q0 141 -56 208t-154 67zM936 287q-10 -49 -12 -122t2 -165h-172q-4 35 -6.5 66.5t0.5 60.5h-5q-37 -55 -106.5 -101t-167.5 -46 q-162 0 -254 104t-92 303q0 147 40 266t107.5 203t155.5 129t184 45q117 0 181.5 -52t93.5 -144h4q8 37 21.5 89t23.5 83h168q-23 -78 -44.5 -165t-37.5 -161zM520 1143l-37 80l428 262l64 -146z" />
<glyph unicode="&#xe2;" horiz-adv-x="1167" d="M621 887q-74 0 -134.5 -43t-102.5 -112.5t-64.5 -160t-22.5 -184.5q0 -137 52 -200.5t147 -63.5q74 0 135 39t106 106.5t69.5 156.5t24.5 187q0 141 -56 208t-154 67zM936 287q-10 -49 -12 -122t2 -165h-172q-4 35 -6.5 66.5t0.5 60.5h-5q-37 -55 -106.5 -101t-167.5 -46 q-162 0 -254 104t-92 303q0 147 40 266t107.5 203t155.5 129t184 45q117 0 181.5 -52t93.5 -144h4q8 37 21.5 89t23.5 83h168q-23 -78 -44.5 -165t-37.5 -161zM463 1126l-57 88l350 254l235 -260l-86 -82l-178 164z" />
<glyph unicode="&#xe3;" horiz-adv-x="1167" d="M621 887q-74 0 -134.5 -43t-102.5 -112.5t-64.5 -160t-22.5 -184.5q0 -137 52 -200.5t147 -63.5q74 0 135 39t106 106.5t69.5 156.5t24.5 187q0 141 -56 208t-154 67zM936 287q-10 -49 -12 -122t2 -165h-172q-4 35 -6.5 66.5t0.5 60.5h-5q-37 -55 -106.5 -101t-167.5 -46 q-162 0 -254 104t-92 303q0 147 40 266t107.5 203t155.5 129t184 45q117 0 181.5 -52t93.5 -144h4q8 37 21.5 89t23.5 83h168q-23 -78 -44.5 -165t-37.5 -161zM690 1247q-25 25 -43 34t-45 9q-35 0 -54.5 -21.5t-29.5 -64.5h-92q8 94 58.5 152.5t138.5 58.5q45 0 74.5 -12 t64.5 -43q23 -18 41 -30.5t41 -12.5q35 0 54.5 21.5t29.5 64.5h92q-8 -94 -58.5 -152.5t-138.5 -58.5q-45 0 -74.5 13t-58.5 42z" />
<glyph unicode="&#xe4;" horiz-adv-x="1167" d="M621 887q-74 0 -134.5 -43t-102.5 -112.5t-64.5 -160t-22.5 -184.5q0 -137 52 -200.5t147 -63.5q74 0 135 39t106 106.5t69.5 156.5t24.5 187q0 141 -56 208t-154 67zM936 287q-10 -49 -12 -122t2 -165h-172q-4 35 -6.5 66.5t0.5 60.5h-5q-37 -55 -106.5 -101t-167.5 -46 q-162 0 -254 104t-92 303q0 147 40 266t107.5 203t155.5 129t184 45q117 0 181.5 -52t93.5 -144h4q8 37 21.5 89t23.5 83h168q-23 -78 -44.5 -165t-37.5 -161zM791 1196l47 221h170l-47 -221h-170zM432 1196l47 221h170l-47 -221h-170z" />
<glyph unicode="&#xe5;" horiz-adv-x="1167" d="M621 887q-74 0 -134.5 -43t-102.5 -112.5t-64.5 -160t-22.5 -184.5q0 -137 52 -200.5t147 -63.5q74 0 135 39t106 106.5t69.5 156.5t24.5 187q0 141 -56 208t-154 67zM936 287q-10 -49 -12 -122t2 -165h-172q-4 35 -6.5 66.5t0.5 60.5h-5q-37 -55 -106.5 -101t-167.5 -46 q-162 0 -254 104t-92 303q0 147 40 266t107.5 203t155.5 129t184 45q117 0 181.5 -52t93.5 -144h4q8 37 21.5 89t23.5 83h168q-23 -78 -44.5 -165t-37.5 -161zM922 1321q0 -82 -55.5 -140.5t-137.5 -58.5q-41 0 -74.5 15.5t-60.5 43t-41 63.5t-14 77q0 82 54 139.5t136 57.5 q84 0 138.5 -57.5t54.5 -139.5zM625 1321q0 -47 28.5 -79t75.5 -32t76 32t29 79t-29 79t-76 32t-75.5 -32t-28.5 -79z" />
<glyph unicode="&#xe6;" horiz-adv-x="1699" d="M1518 240q-57 -119 -152.5 -192t-251.5 -73q-147 0 -238.5 62.5t-125.5 181.5q-74 -117 -171.5 -180.5t-232.5 -63.5q-125 0 -202.5 70t-77.5 186q0 78 30.5 142.5t88 111.5t138 73t181.5 26h254l30 149q4 12 5.5 28.5t1.5 24.5q0 43 -37 72t-123 29q-104 0 -171 -40 t-95 -132l-152 51q41 125 148.5 194.5t273.5 69.5q121 0 197.5 -33.5t107.5 -81.5q133 115 309 115q88 0 156 -29.5t113 -80t67.5 -118t22.5 -143.5q0 -61 -10.5 -119.5t-20.5 -99.5h-670q-4 -16 -4 -34.5v-24.5q0 -262 213 -262q88 0 151.5 53t98.5 133zM1430 584 q4 25 6 47t2 45q2 104 -51.5 157.5t-151.5 53.5q-59 0 -108.5 -23.5t-87.5 -65.5t-65.5 -97.5t-41.5 -116.5h498zM729 444h-219q-123 0 -194.5 -53t-71.5 -158q0 -53 31.5 -84.5t97.5 -31.5q98 0 182 60.5t150 158.5z" />
<glyph unicode="&#xe7;" horiz-adv-x="1064" d="M410 -14q-141 27 -212 131t-71 268q0 141 41 260t114.5 204t173 133t216.5 48q162 0 245.5 -86t92.5 -221l-170 -23q-6 88 -50.5 137.5t-136.5 49.5q-74 0 -137 -37t-109.5 -102.5t-73 -159.5t-26.5 -207q0 -123 59.5 -192.5t168.5 -69.5q102 0 162.5 62.5t84.5 152.5 l158 -53q-20 -63 -55 -119t-87.5 -97.5t-123 -65.5t-162.5 -24q-8 0 -15.5 1t-13.5 1l-61 -88l2 -2q35 14 72 15q61 0 106 -35t45 -94q0 -78 -54 -121t-147 -43q-59 0 -98 13t-80 42l39 68q27 -16 57.5 -28.5t59.5 -12.5q41 0 64.5 19.5t23.5 56.5q0 23 -18.5 39t-49.5 16 q-39 0 -77 -25l-48 39z" />
<glyph unicode="&#xe8;" horiz-adv-x="1093" d="M915 240q-57 -119 -152 -192t-251 -73q-190 0 -287.5 105.5t-97.5 304.5q0 137 39 255t108.5 205t166 136t210.5 49q88 0 155.5 -29.5t113 -80t68 -118t22.5 -143.5q0 -61 -10.5 -119.5t-20.5 -99.5h-670q-4 -16 -4 -34.5v-24.5q0 -262 213 -262q88 0 151.5 53t98.5 133z M827 584q4 25 6.5 47t2.5 45q2 104 -51.5 157.5t-151.5 53.5q-59 0 -108.5 -23.5t-87.5 -65.5t-65.5 -97.5t-41.5 -116.5h497zM498 1341l92 144l375 -262l-45 -80z" />
<glyph unicode="&#xe9;" horiz-adv-x="1093" d="M915 240q-57 -119 -152 -192t-251 -73q-190 0 -287.5 105.5t-97.5 304.5q0 137 39 255t108.5 205t166 136t210.5 49q88 0 155.5 -29.5t113 -80t68 -118t22.5 -143.5q0 -61 -10.5 -119.5t-20.5 -99.5h-670q-4 -16 -4 -34.5v-24.5q0 -262 213 -262q88 0 151.5 53t98.5 133z M827 584q4 25 6.5 47t2.5 45q2 104 -51.5 157.5t-151.5 53.5q-59 0 -108.5 -23.5t-87.5 -65.5t-65.5 -97.5t-41.5 -116.5h497zM528 1143l-36 80l428 262l63 -146z" />
<glyph unicode="&#xea;" horiz-adv-x="1093" d="M915 240q-57 -119 -152 -192t-251 -73q-190 0 -287.5 105.5t-97.5 304.5q0 137 39 255t108.5 205t166 136t210.5 49q88 0 155.5 -29.5t113 -80t68 -118t22.5 -143.5q0 -61 -10.5 -119.5t-20.5 -99.5h-670q-4 -16 -4 -34.5v-24.5q0 -262 213 -262q88 0 151.5 53t98.5 133z M827 584q4 25 6.5 47t2.5 45q2 104 -51.5 157.5t-151.5 53.5q-59 0 -108.5 -23.5t-87.5 -65.5t-65.5 -97.5t-41.5 -116.5h497zM477 1126l-57 88l350 254l236 -260l-86 -82l-179 164z" />
<glyph unicode="&#xeb;" horiz-adv-x="1093" d="M915 240q-57 -119 -152 -192t-251 -73q-190 0 -287.5 105.5t-97.5 304.5q0 137 39 255t108.5 205t166 136t210.5 49q88 0 155.5 -29.5t113 -80t68 -118t22.5 -143.5q0 -61 -10.5 -119.5t-20.5 -99.5h-670q-4 -16 -4 -34.5v-24.5q0 -262 213 -262q88 0 151.5 53t98.5 133z M827 584q4 25 6.5 47t2.5 45q2 104 -51.5 157.5t-151.5 53.5q-59 0 -108.5 -23.5t-87.5 -65.5t-65.5 -97.5t-41.5 -116.5h497zM801 1196l47 221h170l-47 -221h-170zM442 1196l47 221h170l-47 -221h-170z" />
<glyph unicode="&#xec;" horiz-adv-x="552" d="M106 0l213 1006h164l-213 -1006h-164zM227 1341l92 144l375 -262l-45 -80z" />
<glyph unicode="&#xed;" horiz-adv-x="552" d="M106 0l213 1006h164l-213 -1006h-164zM254 1143l-37 80l428 262l64 -146z" />
<glyph unicode="&#xee;" horiz-adv-x="552" d="M106 0l213 1006h164l-213 -1006h-164zM205 1126l-58 88l351 254l235 -260l-86 -82l-178 164z" />
<glyph unicode="&#xef;" horiz-adv-x="552" d="M106 0l213 1006h164l-213 -1006h-164zM535 1196l47 221h170l-47 -221h-170zM176 1196l47 221h170l-47 -221h-170z" />
<glyph unicode="&#xf0;" horiz-adv-x="1183" d="M936 1262q61 -74 99 -182.5t38 -223.5q0 -207 -40 -372t-115.5 -279.5t-182 -175t-237.5 -60.5q-84 0 -151.5 27t-115 75t-73 115.5t-25.5 151.5q0 119 37 224.5t104.5 184t161.5 125t207 46.5q98 0 163.5 -43.5t98.5 -120.5h4q4 25 6.5 48t2.5 48q-2 111 -32 198 t-81 150l-295 -135l-43 100l256 117q-33 29 -78 55.5t-96 46.5l45 105q78 -29 144.5 -65t119.5 -79l229 109l48 -96zM506 119q74 0 134 31.5t103 90t67 140.5t24 184q0 94 -51.5 148.5t-143.5 54.5q-72 0 -132.5 -29.5t-105.5 -85t-69.5 -135.5t-24.5 -178q0 -109 54.5 -165 t144.5 -56z" />
<glyph unicode="&#xf1;" horiz-adv-x="1148" d="M451 1006q-4 -33 -9.5 -70t-13.5 -72h4q20 27 48 56.5t66 54t88 40t114 15.5q135 0 213.5 -69.5t78.5 -184.5q0 -29 -3 -58.5t-7 -51.5l-141 -666h-168l139 662q4 12 6 33.5t2 45.5q0 59 -38.5 101.5t-127.5 42.5q-61 0 -114 -24.5t-93 -67.5t-68 -98.5t-40 -116.5 l-119 -578h-168l146 723q12 59 23.5 136t19.5 147h162zM735 1247q-25 25 -43 34t-45 9q-35 0 -54.5 -21.5t-29.5 -64.5h-92q8 94 58.5 152.5t138.5 58.5q45 0 74.5 -12t64.5 -43q23 -18 41 -30.5t41 -12.5q35 0 54.5 21.5t29.5 64.5h92q-8 -94 -58.5 -152.5t-138.5 -58.5 q-45 0 -74.5 13t-58.5 42z" />
<glyph unicode="&#xf2;" horiz-adv-x="1122" d="M1016 623q0 -137 -36 -255t-102.5 -205t-160.5 -137.5t-211 -50.5q-80 0 -149.5 25t-121 74t-80 125.5t-28.5 181.5q0 137 36 255t102.5 206t161.5 138t214 50q80 0 148.5 -25.5t118.5 -75.5t79 -127t29 -179zM836 623q0 129 -53.5 197.5t-157.5 68.5q-63 0 -122 -35 t-103 -100.5t-70.5 -159.5t-26.5 -213q0 -264 213 -264q63 0 121.5 35.5t102.5 102.5t70 160t26 208zM500 1341l92 144l375 -262l-45 -80z" />
<glyph unicode="&#xf3;" horiz-adv-x="1122" d="M1016 623q0 -137 -36 -255t-102.5 -205t-160.5 -137.5t-211 -50.5q-80 0 -149.5 25t-121 74t-80 125.5t-28.5 181.5q0 137 36 255t102.5 206t161.5 138t214 50q80 0 148.5 -25.5t118.5 -75.5t79 -127t29 -179zM836 623q0 129 -53.5 197.5t-157.5 68.5q-63 0 -122 -35 t-103 -100.5t-70.5 -159.5t-26.5 -213q0 -264 213 -264q63 0 121.5 35.5t102.5 102.5t70 160t26 208zM514 1143l-37 80l428 262l64 -146z" />
<glyph unicode="&#xf4;" horiz-adv-x="1122" d="M1016 623q0 -137 -36 -255t-102.5 -205t-160.5 -137.5t-211 -50.5q-80 0 -149.5 25t-121 74t-80 125.5t-28.5 181.5q0 137 36 255t102.5 206t161.5 138t214 50q80 0 148.5 -25.5t118.5 -75.5t79 -127t29 -179zM836 623q0 129 -53.5 197.5t-157.5 68.5q-63 0 -122 -35 t-103 -100.5t-70.5 -159.5t-26.5 -213q0 -264 213 -264q63 0 121.5 35.5t102.5 102.5t70 160t26 208zM473 1126l-57 88l350 254l235 -260l-86 -82l-178 164z" />
<glyph unicode="&#xf5;" horiz-adv-x="1122" d="M1016 623q0 -137 -36 -255t-102.5 -205t-160.5 -137.5t-211 -50.5q-80 0 -149.5 25t-121 74t-80 125.5t-28.5 181.5q0 137 36 255t102.5 206t161.5 138t214 50q80 0 148.5 -25.5t118.5 -75.5t79 -127t29 -179zM836 623q0 129 -53.5 197.5t-157.5 68.5q-63 0 -122 -35 t-103 -100.5t-70.5 -159.5t-26.5 -213q0 -264 213 -264q63 0 121.5 35.5t102.5 102.5t70 160t26 208zM694 1247q-25 25 -43 34t-45 9q-35 0 -54.5 -21.5t-29.5 -64.5h-92q8 94 58.5 152.5t138.5 58.5q45 0 74.5 -12t64.5 -43q23 -18 41 -30.5t41 -12.5q35 0 54.5 21.5 t29.5 64.5h92q-8 -94 -58.5 -152.5t-138.5 -58.5q-45 0 -74.5 13t-58.5 42z" />
<glyph unicode="&#xf6;" horiz-adv-x="1122" d="M1016 623q0 -137 -36 -255t-102.5 -205t-160.5 -137.5t-211 -50.5q-80 0 -149.5 25t-121 74t-80 125.5t-28.5 181.5q0 137 36 255t102.5 206t161.5 138t214 50q80 0 148.5 -25.5t118.5 -75.5t79 -127t29 -179zM836 623q0 129 -53.5 197.5t-157.5 68.5q-63 0 -122 -35 t-103 -100.5t-70.5 -159.5t-26.5 -213q0 -264 213 -264q63 0 121.5 35.5t102.5 102.5t70 160t26 208zM803 1196l47 221h170l-47 -221h-170zM444 1196l48 221h170l-48 -221h-170z" />
<glyph unicode="&#xf7;" horiz-adv-x="1331" d="M193 461v127h970v-127h-970zM571 774v219h213v-219h-213zM571 57v219h213v-219h-213z" />
<glyph unicode="&#xf8;" horiz-adv-x="1122" d="M-16 -39l188 199q-45 94 -45 221q0 139 36 258t102.5 206t161.5 136t214 49q78 0 146.5 -24.5t117.5 -73.5l117 123l70 -66l-129 -135q25 -47 39 -103.5t14 -127.5q0 -139 -37 -258t-104.5 -205t-164 -135.5t-216.5 -49.5q-78 0 -148 26t-119 79l-174 -182zM836 623 q0 25 -2.5 47t-6.5 43l-485 -510q51 -86 174 -86q63 0 121.5 34.5t102.5 100t70 160t26 211.5zM303 381v-42.5t4 -35.5l481 506q-55 80 -163 80q-63 0 -122 -34t-103 -98.5t-70.5 -159.5t-26.5 -216z" />
<glyph unicode="&#xf9;" horiz-adv-x="1157" d="M729 0q4 33 9 69.5t14 71.5h-4q-20 -29 -48 -57.5t-66 -53t-88 -40t-114 -15.5q-135 0 -212 70t-77 184q0 29 3.5 58.5t7.5 52.5l141 666h168l-139 -662q-4 -12 -6.5 -33.5t-2.5 -46.5q0 -59 37 -101t125 -42q61 0 114.5 24.5t93.5 67.5t67.5 98.5t40.5 116.5l118 578 h168l-145 -723q-12 -59 -23.5 -136t-19.5 -147h-162zM512 1341l92 144l375 -262l-45 -80z" />
<glyph unicode="&#xfa;" horiz-adv-x="1157" d="M729 0q4 33 9 69.5t14 71.5h-4q-20 -29 -48 -57.5t-66 -53t-88 -40t-114 -15.5q-135 0 -212 70t-77 184q0 29 3.5 58.5t7.5 52.5l141 666h168l-139 -662q-4 -12 -6.5 -33.5t-2.5 -46.5q0 -59 37 -101t125 -42q61 0 114.5 24.5t93.5 67.5t67.5 98.5t40.5 116.5l118 578 h168l-145 -723q-12 -59 -23.5 -136t-19.5 -147h-162zM537 1143l-37 80l428 262l63 -146z" />
<glyph unicode="&#xfb;" horiz-adv-x="1157" d="M729 0q4 33 9 69.5t14 71.5h-4q-20 -29 -48 -57.5t-66 -53t-88 -40t-114 -15.5q-135 0 -212 70t-77 184q0 29 3.5 58.5t7.5 52.5l141 666h168l-139 -662q-4 -12 -6.5 -33.5t-2.5 -46.5q0 -59 37 -101t125 -42q61 0 114.5 24.5t93.5 67.5t67.5 98.5t40.5 116.5l118 578 h168l-145 -723q-12 -59 -23.5 -136t-19.5 -147h-162zM489 1126l-57 88l350 254l236 -260l-86 -82l-178 164z" />
<glyph unicode="&#xfc;" horiz-adv-x="1157" d="M729 0q4 33 9 69.5t14 71.5h-4q-20 -29 -48 -57.5t-66 -53t-88 -40t-114 -15.5q-135 0 -212 70t-77 184q0 29 3.5 58.5t7.5 52.5l141 666h168l-139 -662q-4 -12 -6.5 -33.5t-2.5 -46.5q0 -59 37 -101t125 -42q61 0 114.5 24.5t93.5 67.5t67.5 98.5t40.5 116.5l118 578 h168l-145 -723q-12 -59 -23.5 -136t-19.5 -147h-162zM815 1196l47 221h170l-47 -221h-170zM457 1196l47 221h170l-47 -221h-170z" />
<glyph unicode="&#xfd;" horiz-adv-x="974" d="M336 -260q-47 -84 -118 -127t-175 -43q-57 0 -106.5 15.5t-100.5 43.5l51 129q39 -23 77 -35t81 -12q57 0 99 26.5t77 90.5l96 172l-157 1006h188l76 -578q8 -61 14 -105t8 -98h5q23 51 44 97.5t54 105.5l315 578h185zM467 1143l-37 80l428 262l64 -146z" />
<glyph unicode="&#xfe;" horiz-adv-x="1169" d="M297 170q-4 -45 -10 -82t-17 -84l-90 -414h-172l393 1864h168l-94 -450q-10 -47 -23.5 -90.5t-23.5 -71.5h4q47 82 126 135t177 53q76 0 137.5 -27.5t104.5 -80t66.5 -126t23.5 -165.5q0 -141 -35 -261t-96.5 -207t-148.5 -137.5t-191 -50.5q-125 0 -196.5 55.5 t-98.5 139.5h-4zM891 618q0 150 -54.5 209.5t-146.5 59.5q-74 0 -134 -44t-103 -118t-68 -167t-25 -191q0 -111 59.5 -179.5t170.5 -68.5q61 0 115.5 33.5t95.5 98t65.5 157.5t24.5 210z" />
<glyph unicode="&#xff;" horiz-adv-x="974" d="M336 -260q-47 -84 -118 -127t-175 -43q-57 0 -106.5 15.5t-100.5 43.5l51 129q39 -23 77 -35t81 -12q57 0 99 26.5t77 90.5l96 172l-157 1006h188l76 -578q8 -61 14 -105t8 -98h5q23 51 44 97.5t54 105.5l315 578h185zM739 1196l47 221h170l-47 -221h-170zM381 1196 l47 221h170l-47 -221h-170z" />
<glyph unicode="&#x152;" horiz-adv-x="1708" d="M868 1485q82 0 154 -31h803l-33 -158h-625l-100 -471h506l-33 -157h-506l-108 -510h624l-32 -158h-762q-86 -31 -181 -31q-84 0 -157.5 32t-129 94.5t-87 156.5t-31.5 219q0 199 50 383t142.5 323.5t220 223.5t285.5 84zM604 127q33 0 67 5t66 20l244 1153 q-33 14 -65.5 18t-61.5 4q-111 0 -202 -67.5t-156.5 -183t-102.5 -271.5t-37 -334q0 -186 63.5 -265t184.5 -79z" />
<glyph unicode="&#x153;" horiz-adv-x="1794" d="M1614 240q-57 -119 -152.5 -192t-251.5 -73q-248 0 -338 181q-68 -86 -163 -133.5t-205 -47.5q-80 0 -148.5 25t-120 74t-80 125.5t-28.5 181.5q0 139 36 258t102.5 206t161.5 136t214 49q111 0 197 -46t133 -142q72 88 169 138t210 50q88 0 155.5 -29.5t112.5 -80 t67.5 -118t22.5 -143.5q0 -61 -10 -119.5t-21 -99.5h-669q-4 -16 -4 -34.5v-24.5q0 -262 213 -262q88 0 151.5 53t97.5 133zM836 623q0 129 -53.5 197.5t-157.5 68.5q-63 0 -122 -34t-103 -98.5t-70.5 -159.5t-26.5 -216q0 -264 213 -264q63 0 121.5 34.5t102.5 100t70 160 t26 211.5zM1526 584q4 25 6 47t2 45q2 104 -51 157.5t-152 53.5q-59 0 -108 -23.5t-87 -65.5t-66 -97.5t-42 -116.5h498z" />
<glyph unicode="&#x178;" horiz-adv-x="1150" d="M694 629l-127 -629h-182l129 635l-276 819h206l191 -633l467 633h225zM893 1626l47 221h170l-47 -221h-170zM535 1626l47 221h170l-47 -221h-170z" />
<glyph unicode="&#x2c6;" horiz-adv-x="450" d="M-16 1126l-58 88l350 254l236 -260l-86 -82l-178 164z" />
<glyph unicode="&#x2da;" horiz-adv-x="450" d="M418 1321q0 -82 -55.5 -140.5t-137.5 -58.5q-41 0 -74.5 15.5t-60.5 43t-41 63.5t-14 77q0 82 54 139.5t136 57.5q84 0 138.5 -57.5t54.5 -139.5zM121 1321q0 -47 28.5 -79t75.5 -32t76 32t29 79t-29 79t-76 32t-75.5 -32t-28.5 -79z" />
<glyph unicode="&#x2dc;" horiz-adv-x="450" d="M152 1247q-25 25 -43.5 34t-45.5 9q-35 0 -54 -21.5t-29 -64.5h-93q8 94 58.5 152.5t138.5 58.5q45 0 74.5 -12t64.5 -43q23 -18 41.5 -30.5t40.5 -12.5q35 0 54.5 21.5t29.5 64.5h92q-8 -94 -58 -152.5t-138 -58.5q-45 0 -74.5 13t-58.5 42z" />
<glyph unicode="&#x2000;" horiz-adv-x="959" />
<glyph unicode="&#x2001;" horiz-adv-x="1919" />
<glyph unicode="&#x2002;" horiz-adv-x="959" />
<glyph unicode="&#x2003;" horiz-adv-x="1919" />
<glyph unicode="&#x2004;" horiz-adv-x="639" />
<glyph unicode="&#x2005;" horiz-adv-x="479" />
<glyph unicode="&#x2006;" horiz-adv-x="319" />
<glyph unicode="&#x2007;" horiz-adv-x="319" />
<glyph unicode="&#x2008;" horiz-adv-x="239" />
<glyph unicode="&#x2009;" horiz-adv-x="383" />
<glyph unicode="&#x200a;" horiz-adv-x="106" />
<glyph unicode="&#x2010;" horiz-adv-x="940" d="M188 514l31 148h612l-30 -148h-613z" />
<glyph unicode="&#x2011;" horiz-adv-x="940" d="M188 514l31 148h612l-30 -148h-613z" />
<glyph unicode="&#x2012;" horiz-adv-x="940" d="M188 514l31 148h612l-30 -148h-613z" />
<glyph unicode="&#x2013;" horiz-adv-x="1433" d="M207 514l31 148h1024l-31 -148h-1024z" />
<glyph unicode="&#x2014;" horiz-adv-x="2048" d="M262 514l31 148h1515l-30 -148h-1516z" />
<glyph unicode="&#x2018;" horiz-adv-x="686" d="M381 1194q29 135 86 197.5t170 78.5l16 -75q-41 -10 -66.5 -23.5t-43 -32t-27.5 -45t-18 -65.5l-6 -27h112l-45 -219h-221z" />
<glyph unicode="&#x2019;" horiz-adv-x="686" d="M614 1243q-29 -135 -86 -197.5t-170 -78.5l-16 75q41 10 66.5 23.5t43 32t26.5 45t20 65.5l6 27h-113l45 219h221z" />
<glyph unicode="&#x201a;" horiz-adv-x="686" d="M385 8q-29 -135 -86 -197.5t-170 -78.5l-16 75q41 10 66.5 23.5t43 32t26.5 45t19 65.5l6 27h-112l45 219h221z" />
<glyph unicode="&#x201c;" horiz-adv-x="976" d="M707 1178q29 135 86 197.5t170 78.5l16 -76q-41 -10 -66.5 -23.5t-43 -31.5t-28 -45t-18.5 -66l-6 -26h113l-45 -219h-221zM356 1178q29 135 86.5 197.5t169.5 78.5l17 -76q-41 -10 -66.5 -23.5t-43 -31.5t-28 -45t-18.5 -66l-6 -26h113l-45 -219h-222z" />
<glyph unicode="&#x201d;" horiz-adv-x="976" d="M594 1243q-29 -135 -86 -197.5t-170 -78.5l-16 75q41 10 66.5 23.5t43 32t26.5 45t19 65.5l6 27h-112l45 219h221zM944 1243q-29 -135 -86 -197.5t-170 -78.5l-16 75q41 10 66.5 23.5t43 32t26.5 45t19 65.5l7 27h-113l45 219h221z" />
<glyph unicode="&#x201e;" horiz-adv-x="976" d="M346 8q-29 -135 -86 -197.5t-170 -78.5l-16 75q41 10 66.5 23.5t43 32t26.5 45t19 65.5l7 27h-113l45 219h221zM696 8q-29 -135 -86 -197.5t-170 -78.5l-16 75q41 10 66.5 23.5t43 32t26.5 45t20 65.5l6 27h-113l45 219h221z" />
<glyph unicode="&#x2022;" horiz-adv-x="1024" d="M911 741q0 -72 -27.5 -136t-74.5 -112.5t-110.5 -76t-137.5 -27.5t-137.5 27.5t-111.5 76t-75.5 112t-27.5 136.5q0 74 27.5 137.5t75.5 110.5t112.5 75t136.5 28t135.5 -28t111.5 -76t75.5 -111.5t27.5 -135.5z" />
<glyph unicode="&#x2026;" horiz-adv-x="2048" d="M154 0l45 219h213l-45 -219h-213zM836 0l45 219h213l-45 -219h-213zM1518 0l45 219h213l-45 -219h-213z" />
<glyph unicode="&#x202f;" horiz-adv-x="383" />
<glyph unicode="&#x2039;" horiz-adv-x="622" d="M285 508l198 -330l-88 -63l-280 401l374 402l80 -76z" />
<glyph unicode="&#x203a;" horiz-adv-x="622" d="M377 524l-199 330l88 64l281 -402l-375 -401l-80 75z" />
<glyph unicode="&#x205f;" horiz-adv-x="479" />
<glyph unicode="&#x20ac;" horiz-adv-x="1187" d="M1079 309q-25 -86 -71.5 -150.5t-106 -106.5t-128 -62.5t-138.5 -20.5q-205 0 -311.5 130t-106.5 374v46.5t2 45.5h-162l45 111h125q4 31 9.5 61.5t11.5 61.5h-137l45 110h118q39 135 101.5 241.5t141.5 181.5t171 114t191 39q84 0 149.5 -29t109.5 -78t66.5 -115.5 t20.5 -142.5l-181 -24q0 127 -52 179t-134 52q-119 0 -225.5 -109.5t-167.5 -308.5h491l-45 -110h-475q-6 -29 -12 -59.5t-10 -63.5h458l-45 -111h-424q-2 -27 -2 -52.5v-51.5q0 -168 63.5 -251t172.5 -83t176.5 66.5t95.5 164.5z" />
<glyph unicode="&#x2122;" horiz-adv-x="1730" d="M606 1358v-707h-110v707h-228v96h570v-96h-232zM1528 651v445v89t4 113h-4q-16 -61 -29.5 -103t-30.5 -95l-145 -449h-74l-151 449q-16 53 -30.5 95t-31.5 108h-4q4 -66 4 -117v-90v-445h-98v803h145l158 -504q12 -41 22.5 -74.5t20.5 -78.5h4q10 45 19.5 78.5t21.5 74.5 l154 504h147v-803h-102z" />
<glyph unicode="&#x2190;" d="M705 655h-70t-78 1t-73.5 2t-57.5 1q20 -18 48 -43.5t56.5 -53t57 -56.5t51.5 -51l358 -361l-98 -94l-725 727l725 727l98 -94l-358 -361q-23 -23 -51.5 -51l-57 -56t-56.5 -53.5t-48 -43.5q23 0 57.5 1t73.5 2t78 1h70h1474v-144h-1474z" />
<glyph unicode="&#x2191;" d="M1118 1198v70t1 77.5t2 73.5t1 58q-18 -23 -43.5 -49.5t-53.5 -55.5t-56.5 -57.5l-50.5 -50.5l-361 -359l-94 99l727 725l727 -725l-94 -99l-361 359q-23 23 -51.5 51t-56 57t-53 55.5t-44.5 49.5q0 -23 1.5 -58t2.5 -73.5t1 -77.5v-70v-1474h-144v1474z" />
<glyph unicode="&#x2192;" d="M199 655v144h1474h70t78 -1t73.5 -2t57.5 -1q-23 18 -49.5 43.5t-55 53.5t-57.5 56.5t-51 50.5l-359 361l99 94l725 -727l-725 -727l-99 94l359 361l51.5 51.5t57 56t55 53t49.5 43.5q-23 0 -57.5 -1t-73.5 -2t-78 -1h-70h-1474z" />
<glyph unicode="&#x2193;" d="M1116 1729h144v-1475v-70t-1.5 -77.5t-2.5 -73.5t-1 -58q18 20 44 48t53.5 57t56.5 57.5t51 50.5l361 359l94 -98l-727 -725l-727 725l94 98l360 -359q23 -23 51.5 -51t56.5 -57t53.5 -56.5t43.5 -48.5q0 23 -1 58t-2 73.5t-1 77.5v70v1475z" />
<glyph unicode="&#x2196;" d="M825 1010l-50 50t-54 56t-51.5 53.5t-38.5 40.5q2 -29 3 -66.5t2 -77.5t1 -79v-72l-2 -505h-135v1026h1030v-136h-508h-73h-80t-77.5 1.5t-64.5 3.5q16 -14 41 -38t52.5 -51.5l55 -55t50.5 -48.5l1042 -1042l-100 -103z" />
<glyph unicode="&#x2197;" d="M1421 1110l50.5 50.5t56 54t53.5 50t41 40.5q-29 -2 -66.5 -3.5t-77.5 -2.5t-79 -1h-72h-510v138h1030l2 -1028l-137 -2v507v73v80t1 77t3 65q-14 -16 -37.5 -40.5t-51.5 -52.5t-55.5 -56.5t-47.5 -48.5l-1043 -1043l-102 101z" />
<glyph unicode="&#x2198;" d="M403 1384l101 103l1042 -1043q23 -23 50.5 -50t54 -56t50 -53.5t40.5 -40.5q-2 29 -3 66.5t-2 77.5t-1 79v72v505h137v-1026l-1028 -2l-2 138h508h72.5h79.5t77 -1t66 -3q-16 14 -41 37.5t-52.5 51t-56.5 54t-49 49.5z" />
<glyph unicode="&#x2199;" d="M967 342q-23 -23 -50.5 -49.5t-55 -54t-52.5 -51t-41 -37.5q27 2 64.5 3t77.5 1h80h73h508v-138l-1030 2v1026h135v-505v-72v-79t-1 -78t-3 -66q14 16 38.5 40.5t51 53.5t54.5 56.5t50 49.5l1043 1043l100 -103z" />
<glyph unicode="&#x21a4;" d="M1974 655h-1339h-70t-77.5 1t-73.5 2t-58 1q20 -18 48 -43.5t56.5 -53t57.5 -56.5l51 -51l359 -361l-99 -94l-725 727l725 727l99 -94l-359 -361q-23 -23 -51.5 -51l-57 -56t-56 -53.5t-48.5 -43.5q23 0 58 1t73.5 2t77.5 1h70h1339v631h135v-1405h-135v630z" />
<glyph unicode="&#x21a5;" d="M1077 -141v1339v70t1 77.5t2 73.5t1 58q-18 -23 -43.5 -49.5t-53.5 -55.5t-56.5 -57.5l-50.5 -50.5l-361 -359l-94 99l727 725l727 -725l-94 -99l-361 359q-23 23 -51.5 51t-56 57t-53 55.5t-43.5 49.5q0 -23 1 -58t2 -73.5t1 -77.5v-70v-1339h630v-135h-1405v135h631z " />
<glyph unicode="&#x21a6;" d="M395 25h-135v1405h135v-631h1340h69.5t77.5 -1t74 -2t57 -1q-23 18 -49.5 43.5t-55 53.5t-57 56.5t-51.5 50.5l-358 361l98 94l725 -727l-725 -727l-98 94l358 361l51.5 51.5t57 56t55.5 53t49 43.5q-23 0 -57.5 -1t-73.5 -2t-78 -1h-69h-1340v-630z" />
<glyph unicode="&#x21a7;" d="M504 1593v136h1405v-136h-631v-1339v-70t-1 -77.5t-2 -73.5t-1 -58q18 20 43.5 48t53.5 57t56.5 57.5t51.5 50.5l360 359l94 -98l-727 -725l-727 725l94 98l361 -359q23 -23 51.5 -51t56 -57t53 -56.5t44.5 -48.5q0 23 -1 58t-2 73.5t-1 77.5v70v1339h-631z" />
<glyph unicode="&#x21b0;" d="M1976 655h-1339h-70t-77.5 1t-73.5 2t-58 1q20 -18 48 -43.5t57 -53t57.5 -56.5t50.5 -51l359 -361l-99 -94l-725 727l725 727l99 -94l-359 -361l-51 -51t-57 -56t-56.5 -53.5t-48.5 -43.5q23 0 58 1t73.5 2t77.5 1h70h1474v-774h-135v630z" />
<glyph unicode="&#x21b1;" d="M360 25h-135v774h1475h69.5t77.5 -1t74 -2t57 -1q-23 18 -49 43.5t-55 53.5t-57.5 56.5t-51.5 50.5l-358 361l98 94l725 -727l-725 -727l-98 94l358 361l51.5 51.5t57.5 56t55.5 53t48.5 43.5q-23 0 -57.5 -1t-73.5 -2t-77.5 -1h-69.5h-1340v-630z" />
<glyph unicode="&#x21b2;" horiz-adv-x="2234" d="M2009 1430h135v-775h-1474h-70t-78 1t-73.5 2t-57.5 1q20 -18 48 -43.5t56.5 -53t57.5 -56.5l51 -51l359 -361l-99 -94l-725 727l725 727l99 -94l-359 -361q-23 -23 -51.5 -51l-57 -56t-56 -53.5t-48.5 -43.5q23 0 57.5 1t73.5 2t78 1h70h1339v631z" />
<glyph unicode="&#x21b3;" d="M367 799h1339h70t77.5 -1t73.5 -2t58 -1q-23 18 -49.5 43.5t-55.5 53.5t-57.5 56.5l-50.5 50.5l-359 361l98 94l725 -727l-725 -727l-98 94l359 361q23 23 51 51.5t57 56t55.5 53t49.5 43.5q-23 0 -58 -1t-73.5 -2t-77.5 -1h-70h-1475v775h136v-631z" />
<glyph unicode="&#x21b4;" d="M487 1593v136h775v-1475v-70t-1 -77.5t-2.5 -73.5t-1.5 -58q18 20 44 48t53.5 57t56.5 57.5t51 50.5l361 359l94 -98l-727 -725l-727 725l94 98l361 -359l51 -51t56 -57t53.5 -56.5t43.5 -48.5q0 23 -1 58t-2 73.5t-1 77.5v70v1339h-631z" />
<glyph unicode="&#x25fc;" horiz-adv-x="1003" d="M0 1004h1004v-1004h-1004v1004z" />
<glyph horiz-adv-x="940" d="M201 657l30 148h613l-31 -148h-612z" />
<glyph horiz-adv-x="1433" d="M242 657l30 148h1024l-30 -148h-1024z" />
<glyph horiz-adv-x="1918" d="M1051 172q-8 -41 -20.5 -86t-26.5 -86h-166q16 53 34.5 132t40.5 183l211 996q-45 2 -85 7t-78.5 9t-79.5 8t-86 4q-84 0 -132.5 -45t-72.5 -168l-25 -120h275l-25 -144h-280l-183 -862h-168l183 862h-211l26 144h215l29 135q39 180 129 262t240 82q70 0 131 -8.5 t122.5 -17.5t127 -17t143.5 -8l-90 -430q-10 -47 -23.5 -90.5t-23.5 -71.5h4q47 82 126 135t177 53q76 0 137.5 -27.5t104.5 -80t66.5 -126t23.5 -165.5q0 -141 -34 -261t-95.5 -207t-148.5 -137.5t-193 -50.5q-125 0 -197 55.5t-98 141.5h-4zM1645 618q0 150 -54.5 209.5 t-146.5 59.5q-74 0 -134.5 -44t-103.5 -118t-67.5 -167t-24.5 -191q0 -111 59.5 -179.5t167.5 -68.5q61 0 116.5 33.5t96.5 98t66 157.5t25 210z" />
<glyph horiz-adv-x="1976" d="M1706 862h-502l-182 -862h-168l182 862h-501l-183 -862h-168l183 862h-211l26 144h215l29 135q37 174 124 259t236 85q74 0 123 -20.5t74 -37.5l-68 -127q-31 18 -63.5 29.5t-69.5 11.5q-41 0 -71.5 -10t-53 -35.5t-39 -66.5t-28.5 -103l-25 -120h502l29 135 q37 174 124 259t236 85q80 0 130 -19.5t79 -38.5l-68 -127q-31 18 -66.5 29.5t-78.5 11.5q-41 0 -71.5 -10t-53 -35.5t-39 -66.5t-28.5 -103l-25 -120h670l-248 -1160q-31 -147 -103.5 -211.5t-197.5 -64.5q-76 0 -128 22.5t-98 57.5l66 127q35 -23 72 -43.5t78 -20.5 q53 0 95 47t62 144zM1776 1214l47 226h180l-47 -226h-180z" />
<glyph horiz-adv-x="2158" d="M2023 23q-35 -16 -94 -32t-137 -16q-115 0 -183.5 57.5t-68.5 151.5q0 27 5 75t26 140l100 463h-467l-182 -862h-168l182 862h-501l-183 -862h-168l183 862h-211l26 144h215l29 135q37 174 124 259t236 85q74 0 123 -20.5t74 -37.5l-68 -127q-31 18 -63.5 29.5 t-69.5 11.5q-41 0 -71.5 -10t-53 -35.5t-39 -66.5t-28.5 -103l-25 -120h502l29 135q37 174 124 259t236 85q80 0 130 -19.5t79 -38.5l-68 -127q-31 18 -66.5 29.5t-78.5 11.5q-41 0 -71.5 -10t-53 -35.5t-39 -66.5t-28.5 -103l-25 -120h467l67 319l187 84l-86 -403h276 l-26 -144h-281l-98 -465q-20 -92 -25.5 -132t-5.5 -66q0 -35 22.5 -57.5t84.5 -22.5q51 0 99 11t77 22z" />
<glyph horiz-adv-x="1894" d="M1206 895h2q18 23 45 47.5t62 44t80 31.5t100 12q131 0 210 -69.5t79 -184.5q0 -29 -3 -58.5t-7 -51.5l-142 -666h-168l140 662q4 12 6 33.5t2 45.5q0 59 -38 101.5t-124 42.5q-61 0 -112.5 -24.5t-91.5 -67.5t-66.5 -98.5t-38.5 -116.5l-119 -578h-168l268 1311 q-88 4 -162.5 16t-164.5 12q-84 0 -132.5 -45t-72.5 -168l-25 -120h275l-25 -144h-280l-183 -862h-168l183 862h-211l26 144h215l29 135q39 180 129 262t240 82q70 0 130 -8.5t121.5 -17.5t128 -17t148.5 -8z" />
<glyph horiz-adv-x="1302" d="M1036 862h-506l-182 -862h-168l182 862h-210l26 144h215l29 135q37 174 124 259t236 85q80 0 130.5 -19.5t78.5 -38.5l-67 -127q-31 18 -67 29.5t-79 11.5q-41 0 -71.5 -10t-53 -35.5t-39 -66.5t-28.5 -103l-25 -120h674l-248 -1160q-31 -147 -103.5 -211.5t-197.5 -64.5 q-76 0 -128 22.5t-97 57.5l65 127q35 -23 72 -43.5t78 -20.5q53 0 95 47t63 144zM1106 1214l47 226h180l-47 -226h-180z" />
<glyph horiz-adv-x="1822" d="M1516 0l-228 479l-192 -162l-68 -317h-170l277 1311q-90 4 -169 16t-171 12q-84 0 -132.5 -45t-72.5 -168l-25 -120h275l-25 -144h-280l-183 -862h-168l183 862h-211l26 144h215l29 135q39 180 129 262t240 82q70 0 133 -8.5t125.5 -17.5t130 -17t145.5 -8l-184 -885 l512 457h241l-483 -414l283 -592h-182z" />
<glyph horiz-adv-x="1484" d="M1350 23q-35 -16 -94.5 -32t-137.5 -16q-115 0 -183.5 57.5t-68.5 151.5q0 27 5.5 75t25.5 140l100 463h-462l-183 -862h-168l183 862h-211l26 144h215l29 135q37 174 124 259t236 85q74 0 123 -20.5t74 -37.5l-68 -127q-31 18 -63.5 29.5t-69.5 11.5q-41 0 -71.5 -10 t-53 -35.5t-39 -66.5t-28.5 -103l-25 -120h463l68 319l186 84l-86 -403h277l-27 -144h-281l-98 -465q-20 -92 -25.5 -132t-5.5 -66q0 -35 22.5 -57.5t84.5 -22.5q51 0 99 11t77 22z" />
<glyph horiz-adv-x="1900" d="M1473 0q4 33 9 69.5t13 71.5h-4q-20 -29 -48 -57.5t-66 -53t-88 -40t-113 -15.5q-135 0 -212 70t-77 184q0 29 3 58.5t7 52.5l111 522h-476l-182 -862h-168l183 862h-211l26 144h215l29 135q37 174 124 259t236 85q80 0 130.5 -19.5t78.5 -38.5l-67 -127q-31 18 -67 29.5 t-79 11.5q-41 0 -71.5 -10t-53 -35.5t-39 -66.5t-28.5 -103l-25 -120h643l-139 -662q-4 -12 -6 -33.5t-2 -46.5q0 -59 37 -101t125 -42q61 0 114.5 24.5t93 67.5t67.5 98.5t40 116.5l119 578h168l-146 -723q-12 -59 -23.5 -136t-19.5 -147h-161z" />
<glyph horiz-adv-x="1724" d="M1229 0h-158l-135 862h-401l-183 -862h-168l183 862h-211l26 144h215l29 135q37 174 124 259t236 85q74 0 123 -20.5t74 -37.5l-68 -127q-31 18 -63.5 29.5t-69.5 11.5q-41 0 -71.5 -10t-53 -35.5t-39 -66.5t-28.5 -103l-25 -120h527l82 -578q6 -47 10 -101.5t2 -119.5h4 q25 59 48.5 112.5t53.5 108.5l318 578h190z" />
<glyph horiz-adv-x="2109" d="M1683 0h-180l-6 518q-2 53 -1 130t5 140h-6q-20 -68 -47 -136t-49 -122l-242 -530h-190l-27 862h-405l-183 -862h-168l183 862h-211l26 144h215l29 135q37 174 124 259t236 85q74 0 123 -20.5t74 -37.5l-68 -127q-31 18 -63.5 29.5t-69.5 11.5q-41 0 -71.5 -10t-53 -35.5 t-39 -66.5t-28.5 -103l-25 -120h531l10 -572q2 -63 1 -113.5t-5 -101.5h6q16 53 35.5 105.5t44.5 107.5l248 574h206l7 -572q0 -59 -3.5 -110.5t-9.5 -110.5h4q18 59 38 113.5t42 107.5l250 572h184z" />
<glyph horiz-adv-x="1722" d="M1083 -260q-47 -84 -117.5 -127t-174.5 -43q-57 0 -106.5 15.5t-100.5 43.5l51 129q39 -23 77 -35t81 -12q57 0 99 26.5t77 90.5l96 172l-135 862h-395l-183 -862h-168l183 862h-211l26 144h215l29 135q37 174 124 259t236 85q74 0 123 -20.5t74 -37.5l-68 -127 q-31 18 -63.5 29.5t-69.5 11.5q-41 0 -71.5 -10t-53 -35.5t-39 -66.5t-28.5 -103l-25 -120h531l75 -578q8 -61 14.5 -105t8.5 -98h4q23 51 44.5 97.5t53.5 105.5l316 578h184z" />
<glyph horiz-adv-x="1515" d="M1642 1300q-31 18 -63.5 29.5t-69.5 11.5q-41 0 -71.5 -10t-53 -35.5t-39 -66.5t-28.5 -103l-25 -120h275l-25 -144h-280l-183 -862h-168l183 862h-592l-99 -465q-20 -92 -25 -132t-5 -66q0 -35 22.5 -57.5t83.5 -22.5q51 0 99.5 11t76.5 22l31 -129q-35 -16 -94.5 -32 t-136.5 -16q-115 0 -183.5 57.5t-68.5 151.5q0 27 5 75t25 140l101 463h-201l25 144h207l67 319l186 84l-86 -403h592l29 135q37 174 124 259t236 85q74 0 123.5 -20.5t73.5 -37.5z" />
<glyph horiz-adv-x="1355" d="M907 0l183 862h-588l-99 -465q-20 -92 -25 -132t-5 -66q0 -35 22.5 -57.5t83.5 -22.5q51 0 99.5 11t76.5 22l31 -129q-35 -16 -94.5 -32t-136.5 -16q-115 0 -183.5 57.5t-68.5 151.5q0 27 5 75t25 140l101 463h-201l25 144h207l67 319l186 84l-86 -403h756l-213 -1006 h-168zM1159 1214l47 226h180l-47 -226h-180z" />
<glyph horiz-adv-x="1388" d="M1118 862h-616l-99 -465q-20 -92 -25 -132t-5 -66q0 -35 22.5 -57.5t83.5 -22.5q51 0 99.5 11t76.5 22l31 -129q-35 -16 -94.5 -32t-136.5 -16q-115 0 -183.5 57.5t-68.5 151.5q0 27 5 75t25 140l101 463h-201l25 144h207l67 319l186 84l-86 -403h785l-248 -1160 q-31 -147 -103.5 -211.5t-197.5 -64.5q-76 0 -128 22.5t-97 57.5l65 127q35 -23 72 -43.5t78 -20.5q53 0 95 47t62 144zM1188 1214l47 226h180l-47 -226h-180z" />
<glyph horiz-adv-x="1538" d="M1403 23q-35 -16 -94.5 -32t-137.5 -16q-115 0 -183 57.5t-68 151.5q0 27 5 75t25 140l101 463h-549l-99 -465q-20 -92 -25 -132t-5 -66q0 -35 22.5 -57.5t83.5 -22.5q51 0 99.5 11t76.5 22l31 -129q-35 -16 -94.5 -32t-136.5 -16q-115 0 -183.5 57.5t-68.5 151.5 q0 27 5 75t25 140l101 463h-201l25 144h207l67 319l186 84l-86 -403h549l68 319l186 84l-86 -403h277l-27 -144h-280l-99 -465q-20 -92 -25 -132t-5 -66q0 -35 22.5 -57.5t83.5 -22.5q51 0 99 11t77 22z" />
<glyph horiz-adv-x="2232" d="M2359 1300q-31 18 -63.5 29.5t-69.5 11.5q-41 0 -71.5 -10t-53 -35.5t-39 -66.5t-28.5 -103l-25 -120h275l-25 -144h-281l-182 -862h-168l182 862h-591l-99 -465q-20 -92 -25 -132t-5 -66q0 -35 22.5 -57.5t83.5 -22.5q51 0 99 11t77 22l31 -129q-35 -16 -94.5 -32 t-137.5 -16q-115 0 -183 57.5t-68 151.5q0 27 5 75t25 140l101 463h-549l-99 -465q-20 -92 -25 -132t-5 -66q0 -35 22.5 -57.5t83.5 -22.5q51 0 99.5 11t76.5 22l31 -129q-35 -16 -94.5 -32t-136.5 -16q-115 0 -183.5 57.5t-68.5 151.5q0 27 5 75t25 140l101 463h-201 l25 144h207l67 319l186 84l-86 -403h549l68 319l186 84l-86 -403h592l29 135q37 174 124 259t236 85q74 0 123 -20.5t74 -37.5z" />
<glyph horiz-adv-x="2125" d="M1855 862h-636l-99 -465q-20 -92 -25 -132t-5 -66q0 -35 22.5 -57.5t83.5 -22.5q51 0 99 11t77 22l31 -129q-35 -16 -94.5 -32t-137.5 -16q-115 0 -183 57.5t-68 151.5q0 27 5 75t25 140l101 463h-549l-99 -465q-20 -92 -25 -132t-5 -66q0 -35 22.5 -57.5t83.5 -22.5 q51 0 99.5 11t76.5 22l31 -129q-35 -16 -94.5 -32t-136.5 -16q-115 0 -183.5 57.5t-68.5 151.5q0 27 5 75t25 140l101 463h-201l25 144h207l67 319l186 84l-86 -403h549l68 319l186 84l-86 -403h805l-248 -1160q-31 -147 -103.5 -211.5t-197.5 -64.5q-76 0 -128 22.5 t-97 57.5l66 127q35 -23 71.5 -43.5t77.5 -20.5q53 0 95 47t63 144zM1925 1214l47 226h180l-47 -226h-180z" />
<glyph horiz-adv-x="1953" d="M1526 0q4 33 9 69.5t13 71.5h-4q-20 -29 -48 -57.5t-65.5 -53t-88 -40t-113.5 -15.5q-135 0 -212 70t-77 184q0 29 3 58.5t7 52.5l111 522h-559l-99 -465q-20 -92 -25 -132t-5 -66q0 -35 22.5 -57.5t83.5 -22.5q51 0 99.5 11t76.5 22l31 -129q-35 -16 -94.5 -32 t-136.5 -16q-115 0 -183.5 57.5t-68.5 151.5q0 27 5 75t25 140l101 463h-201l25 144h207l67 319l186 84l-86 -403h728l-140 -662q-4 -12 -6 -33.5t-2 -46.5q0 -59 37 -101t125 -42q61 0 114.5 24.5t93.5 67.5t67.5 98.5t39.5 116.5l119 578h168l-145 -723 q-12 -59 -23.5 -136t-19.5 -147h-162z" />
<glyph horiz-adv-x="1726" d="M1231 0h-158l-135 862h-446l-99 -465q-20 -92 -25.5 -132t-5.5 -66q0 -35 23 -57.5t84 -22.5q51 0 99 11t77 22l31 -129q-35 -16 -94.5 -32t-137.5 -16q-115 0 -183 57.5t-68 151.5q0 27 5 75t25 140l101 463h-201l24 144h207l68 319l186 84l-86 -403h572l82 -578 q6 -47 10 -101.5t2 -119.5h4q25 59 48.5 112.5t53.5 108.5l318 578h190z" />
<glyph horiz-adv-x="2148" d="M1722 0h-180l-6 518q-2 53 -1 130t5 140h-6q-20 -68 -47 -136t-49 -122l-242 -530h-190l-27 862h-487l-99 -465q-20 -92 -25.5 -132t-5.5 -66q0 -35 23 -57.5t84 -22.5q51 0 99 11t77 22l31 -129q-35 -16 -94.5 -32t-137.5 -16q-115 0 -183 57.5t-68 151.5q0 27 5 75 t25 140l101 463h-201l24 144h207l68 319l186 84l-86 -403h613l10 -572q2 -63 1 -113.5t-5 -101.5h6q16 53 35.5 105.5t44.5 107.5l248 574h206l7 -572q0 -59 -3.5 -110.5t-9.5 -110.5h4q18 59 38 113.5t42 107.5l250 572h184z" />
<glyph horiz-adv-x="1755" d="M1116 -260q-47 -84 -117.5 -127t-175.5 -43q-57 0 -106 15.5t-101 43.5l52 129q39 -23 76.5 -35t80.5 -12q57 0 99.5 26.5t76.5 90.5l97 172l-135 862h-471l-99 -465q-20 -92 -25.5 -132t-5.5 -66q0 -35 23 -57.5t84 -22.5q51 0 99 11t77 22l31 -129q-35 -16 -94.5 -32 t-137.5 -16q-115 0 -183 57.5t-68 151.5q0 27 5 75t25 140l101 463h-201l24 144h207l68 319l186 84l-86 -403h606l76 -578q8 -61 14.5 -105t8.5 -98h4q23 51 44 97.5t54 105.5l316 578h184z" />
<glyph d="M705 655h-70t-78 1t-73.5 2t-57.5 1q20 -18 48 -43.5t56.5 -53t57 -56.5t51.5 -51l358 -361l-98 -94l-725 727l725 727l98 -94l-358 -361q-23 -23 -51.5 -51l-57 -56t-56.5 -53.5t-48 -43.5q23 0 57.5 1t73.5 2t78 1h70h1474v-144h-1474z" />
<glyph d="M199 655v144h1474h70t78 -1t73.5 -2t57.5 -1q-23 18 -49.5 43.5t-55 53.5t-57.5 56.5t-51 50.5l-359 361l99 94l725 -727l-725 -727l-99 94l359 361l51.5 51.5t57 56t55 53t49.5 43.5q-23 0 -57.5 -1t-73.5 -2t-78 -1h-70h-1474z" />
</font>
</defs>
</svg>
