<?xml version="1.0" encoding="utf-8"?>
<!-- Generator: Adobe Illustrator 19.1.0, SVG Export Plug-In . SVG Version: 6.00 Build 0)  -->
<svg version="1.1" id="Layer_1" xmlns="http://www.w3.org/2000/svg" xmlns:xlink="http://www.w3.org/1999/xlink" x="0px" y="0px"
	 viewBox="-981 982.2 36.8 36.8" style="enable-background:new -981 982.2 36.8 36.8;" xml:space="preserve">
<g>
	<g>
		<path class="st0" d="M-964.9,993c0.4,0.4,0.6,1,0.8,1.7c0.2,0.7,0.3,1.4,0.4,2.2c0.1,0.8,0.2,1.5,0.4,2.1c0.3,1.2,0.6,2.2,0.8,2.8
			c0.2,0.7,0.5,1,0.7,1s0.6-0.3,1.1-0.9c0.5-0.6,1-1.4,1.6-2.5c0.3-0.5,0.4-1,0.4-1.5s-0.1-0.8-0.3-1.1c-0.2-0.3-0.5-0.4-0.9-0.5
			c-0.4,0-0.9,0.1-1.4,0.4c0.1-0.9,0.5-1.6,1-2.2c0.5-0.6,1.1-1.2,1.7-1.5c0.6-0.4,1.3-0.6,2-0.7c0.7-0.1,1.3,0,1.9,0.3
			c0.5,0.2,1,0.7,1.2,1.3c0.3,0.6,0.3,1.4,0.2,2.4c-0.3,1.5-0.8,2.9-1.6,4.3c-0.8,1.4-1.6,2.6-2.5,3.7c-0.9,1.1-1.8,2-2.7,2.7
			c-0.9,0.7-1.5,1.3-2,1.6c-0.5,0.3-0.9,0.4-1.3,0.4c-0.4,0-0.8-0.1-1.1-0.3s-0.7-0.5-0.9-0.8c-0.3-0.3-0.5-0.6-0.6-0.9
			c-0.2-0.4-0.4-1-0.7-2s-0.6-2-1-3.1c-0.3-1.1-0.6-2-0.9-2.9c-0.3-0.9-0.5-1.4-0.6-1.6c-0.2-0.2-0.4-0.2-0.6-0.2s-0.5,0.1-0.7,0.3
			c-0.3,0.1-0.5,0.3-0.8,0.5l-0.8-1c0.6-0.7,1.3-1.4,1.9-2c0.6-0.5,1.2-1,1.9-1.5s1.3-0.8,2-0.9C-965.8,992.4-965.3,992.5-964.9,993
			"/>
	</g>
</g>
<g>
	<path class="st0" d="M-962.6,1018.3c-9.7,0-17.7-7.9-17.7-17.7c0-9.7,7.9-17.7,17.7-17.7c9.7,0,17.7,7.9,17.7,17.7
		C-944.9,1010.3-952.9,1018.3-962.6,1018.3z M-962.6,983.9c-9.2,0-16.7,7.5-16.7,16.7c0,9.2,7.5,16.7,16.7,16.7
		c9.2,0,16.7-7.5,16.7-16.7C-945.9,991.4-953.4,983.9-962.6,983.9z"/>
</g>
</svg>
